<?xml version="1.0" encoding="UTF-8"?>
<svg width="230px" height="252px" viewBox="0 0 230 252" version="1.1" xmlns="http://www.w3.org/2000/svg" xmlns:xlink="http://www.w3.org/1999/xlink">
    <title>undraw_Calculator_0evy</title>
    <g id="Page-2---Illustration-(Sep--21)" stroke="none" stroke-width="1" fill="none" fill-rule="evenodd">
        <g id="Self-serve-solutions" transform="translate(-888.000000, -1922.000000)" fill-rule="nonzero">
            <g id="calculate" transform="translate(1.000000, 1167.000000)">
                <g id="undraw_Calculator_0evy" transform="translate(887.000000, 755.000000)">
                    <g id="calculator">
                        <rect id="Rectangle" fill="#1C4637" x="0" y="0" width="155" height="230" rx="9.8"></rect>
                        <rect id="Rectangle" fill="#000000" opacity="0.1" x="15" y="20" width="129" height="45" rx="22.5"></rect>
                        <rect id="Rectangle" fill="#E6E8EC" x="16" y="21" width="126" height="43" rx="10.2"></rect>
                        <rect id="Rectangle" fill="#000000" opacity="0.1" x="19" y="83" width="26" height="28" rx="10.79"></rect>
                        <rect id="Rectangle" fill="#000000" opacity="0.1" x="50" y="83" width="26" height="28" rx="10.79"></rect>
                        <rect id="Rectangle" fill="#000000" opacity="0.1" x="81" y="83" width="26" height="28" rx="10.79"></rect>
                        <rect id="Rectangle" fill="#000000" opacity="0.1" x="113" y="84" width="26" height="28" rx="13"></rect>
                        <rect id="Rectangle" fill="#48A12A" x="113" y="83" width="26" height="28" rx="10.79"></rect>
                        <rect id="Rectangle" fill="#000000" opacity="0.1" x="19" y="115" width="26" height="28" rx="10.79"></rect>
                        <rect id="Rectangle" fill="#000000" opacity="0.1" x="50" y="115" width="26" height="28" rx="10.79"></rect>
                        <rect id="Rectangle" fill="#000000" opacity="0.1" x="81" y="115" width="26" height="28" rx="10.79"></rect>
                        <rect id="Rectangle" fill="#000000" opacity="0.1" x="19" y="149" width="26" height="28" rx="10.79"></rect>
                        <rect id="Rectangle" fill="#000000" opacity="0.1" x="50" y="149" width="26" height="28" rx="10.79"></rect>
                        <rect id="Rectangle" fill="#000000" opacity="0.1" x="81" y="149" width="26" height="28" rx="10.79"></rect>
                        <rect id="Rectangle" fill="#000000" opacity="0.1" x="81" y="183" width="26" height="28" rx="10.79"></rect>
                        <rect id="Rectangle" fill="#000000" opacity="0.1" x="113" y="115" width="26" height="28" rx="13"></rect>
                        <rect id="Rectangle" fill="#48A12A" x="113" y="115" width="26" height="28" rx="11.3"></rect>
                        <rect id="Rectangle" fill="#000000" opacity="0.1" x="19" y="183" width="57" height="28" rx="10.04"></rect>
                        <rect id="Rectangle" fill="#000000" opacity="0.1" x="110" y="149" width="28" height="63" rx="11.66"></rect>
                        <rect id="Rectangle" fill="#48A12A" x="126" y="56" width="11" height="1"></rect>
                        <rect id="Rectangle" fill="#48A12A" x="109" y="56" width="11" height="1"></rect>
                        <rect id="Rectangle" fill="#48A12A" x="92" y="56" width="11" height="1"></rect>
                        <rect id="Rectangle" fill="#48A12A" x="76" y="56" width="11" height="1"></rect>
                    </g>
                    <g id="Group-2" transform="translate(188.500000, 164.335030) scale(-1, 1) translate(-188.500000, -164.335030) translate(147.000000, 77.000000)">
                        <path d="M22.6700331,44.2470006 C20.9194279,39.2526652 22.6826692,33.6951952 26.9843932,30.6487897 C30.1604714,28.4600779 34.5066876,27.6743774 39.1872231,33.2864733 C48.5482981,44.51064 51,56.8572484 51,56.8572484 L31.8320841,60 C31.8320841,60 25.3128387,51.9748111 22.6700331,44.2470006 Z" id="Path" fill="#BEBBB7" transform="translate(36.500000, 44.500000) rotate(14.000000) translate(-36.500000, -44.500000) "></path>
                        <polygon id="Path" fill="#A0616A" points="51.0008248 170 56.4213104 170 59 149 51 149.000414"></polygon>
                        <path d="M50.0738941,168.081426 L67.1258096,168.081426 L67.1258096,174.66967 L55.3355692,174.66967 C53.9400862,174.66967 52.6017585,174.115316 51.615003,173.128561 C50.6282475,172.141805 50.0738941,170.803478 50.0738941,169.407995 L50.0738941,168.081426 L50.0738941,168.081426 Z" id="Path" fill="#242423" transform="translate(58.599852, 171.375548) rotate(179.997380) translate(-58.599852, -171.375548) "></path>
                        <polygon id="Path" fill="#A0616A" points="7 165.26359 12.0894262 167 21 147.562731 13.4886105 145"></polygon>
                        <path d="M4.54776287,165.572512 L21.5996825,165.572512 L21.5996825,172.160776 L9.80943799,172.160776 C8.41395499,172.160776 7.07562733,171.606423 6.08887183,170.619667 C5.10211633,169.632912 4.54776287,168.294584 4.54776287,166.899101 L4.54776287,165.572512 L4.54776287,165.572512 Z" id="Path" fill="#242423" transform="translate(13.073723, 168.866644) rotate(-161.709820) translate(-13.073723, -168.866644) "></path>
                        <path d="M34.1556819,27.5591714 C36.14409,27.5591714 37.103228,26.4206256 38.7066856,25.4883346 C41.9441447,23.6059936 44.3960136,18.9732146 44.3960136,14.9585218 C44.3960136,8.95542092 39.5295387,4.08894611 33.5264378,4.08894611 C27.5233369,4.08894611 22.6568621,8.95542092 22.6568621,14.9585218 C22.6568621,17.0928351 23.27201,19.0834728 24.3346807,20.7628101 C24.5622501,21.1224378 22.715868,26.8204121 22.9828377,27.1498413 C24.3561065,28.8443968 26.9768438,29.8795721 29.125018,30.5074626 C29.4648088,30.6067801 31.15798,25.5754061 31.5106661,25.6415432 C32.1638718,25.7640349 33.4669176,27.5591714 34.1556819,27.5591714 Z" id="Oval" fill="#A0616A" transform="translate(33.526438, 17.298930) rotate(-28.663210) translate(-33.526438, -17.298930) "></path>
                        <path d="M40.9536037,163.312254 L35.9009946,130.156558 C35.7898611,129.426745 35.174807,128.877168 34.4331208,128.84495 C33.6914345,128.812732 33.0305172,129.306883 32.8557907,130.024279 L25.1616814,161.621463 C24.9104243,162.624693 23.9315366,163.27217 22.903798,163.11492 L1.68032282,159.723428 C1.11097524,159.632488 0.60895328,159.301301 0.303405452,158.815066 C-0.00214237569,158.328832 -0.0813882753,157.735016 0.086054294,157.186383 L27.7601762,66.4722875 C27.8388211,66.2141839 27.8481592,65.9401105 27.7872625,65.677307 L26.8658018,61.7075689 C26.6575325,60.8218611 27.0835614,59.9090924 27.8983148,59.4954056 C31.6667077,57.5835714 41.2093675,53.6090966 48.4145198,57.9627505 C48.8871098,58.2492756 49.2206941,58.7161114 49.3372802,59.2541109 L70.9562388,160.279661 C71.0751895,160.835352 70.9490266,161.415086 70.6096714,161.872182 C70.2703161,162.329278 69.7502803,162.619944 69.1811409,162.670636 L43.1062752,164.992243 C43.0461477,164.997417 42.9864866,165 42.9272919,165 C41.9408741,164.998142 41.1030385,164.28169 40.9536037,163.312254 L40.9536037,163.312254 Z" id="Path" fill="#242423"></path>
                        <path d="M19.5252319,86.9997441 C20.6021312,88.918154 22.9783717,89.5701708 24.8327137,88.4560644 C26.6870556,87.341958 27.3172974,84.8836178 26.2403981,82.9652079 C26.1318331,82.7769574 26.009587,82.5975211 25.8747174,82.428451 L29.1409299,58.3443881 L29.2387343,57.6228277 L29.9021956,52.7083508 L30,52 L29.6384723,52.0175882 L23.3103786,52.3167686 L21.6134161,52.395969 L21.4007786,56.879284 L20.1972054,82.085296 C18.9029209,83.36625 18.6251582,85.3976548 19.5252319,86.9997441 L19.5252319,86.9997441 Z" id="Path" fill="#A0616A"></path>
                        <path d="M29.7095904,57.9930129 L21.4728362,57.2177689 C20.5835264,57.1314217 19.9286582,56.3251997 20.0062391,55.4122104 L21.534025,37.8392726 C21.7356063,35.51548 23.1524137,33.4877588 25.2327623,32.545675 C27.3131108,31.6035913 29.7281605,31.89606 31.5375248,33.3091979 C33.346889,34.7223359 34.2645622,37.0327687 33.9332153,39.3408463 L31.4634242,56.5774833 C31.3461691,57.3937175 30.6640491,57.9988227 29.8598566,58 C29.8101623,58 29.7599312,57.9978183 29.7095904,57.9930129 Z" id="Path" fill="#BEBBB7"></path>
                        <path d="M25.2511194,7.97115189 C26.0698755,7.4730752 26.796472,6.83437901 27.3982483,6.08377285 C28.00173,5.31260686 28.1642183,4.27906496 27.827001,3.35659915 C27.2782606,2.1321465 25.6475561,1.74430957 24.3841152,2.16175804 C23.1206743,2.57920651 22.1445135,3.58038364 21.2210853,4.54731851 C20.4076798,5.39904455 19.5710696,6.2880249 19.1852207,7.40605873 C18.7993717,8.52409256 18.9975901,9.94144576 19.957265,10.6197578 C20.8990516,11.2854292 22.253101,11.0129263 23.1589214,10.2980149 C24.0647419,9.58310356 24.6254476,8.52224862 25.160082,7.4936126 L25.2511194,7.97115189 Z" id="Path" fill="#242423"></path>
                        <path d="M22,4.76094904 C21.9385748,1.72228582 18.3803582,-0.456503856 15.3074978,0.0819235416 C12.2346374,0.620350939 9.8725805,3.17079608 8.69023731,5.98370573 C6.19213617,11.9269168 8.06744855,18.7081361 10.4744637,24.6868827 C12.8814787,30.6656293 15.8601482,36.7349247 15.5090651,43.1472734 C15.0256515,50.2085414 10.6082031,56.4449598 4,59.3954194 C7.46803083,60.9256078 11.6133632,59.3448292 14.5275993,56.9593581 C20.999627,51.6616399 23.4978249,42.2299786 20.4641714,34.5465273 C18.9678864,30.7568374 16.330981,27.5147651 14.2722975,23.9838621 C12.213614,20.4529592 10.7031506,16.2919251 11.766026,12.3660149 C12.8289013,8.44010463 17.3521755,5.26043759 21.2193021,6.7812722 L22,4.76094904 Z" id="Path" fill="#D69C09"></path>
                        <path d="M32.9729032,19.9143644 C32.0282587,18.3258802 31.0744489,16.2405673 32.8016967,14.8521617 C33.5602881,14.2699967 34.5227862,14.0167876 35.4714489,14.1498166 C37.4183925,14.3833407 39.5384811,14.4795576 41.4228109,13.7758285 C42.8506902,13.2868902 44.0183781,12.2429606 44.6591457,10.882499 C45.6320063,8.5891719 44.4137729,5.8023656 42.3799996,4.35260115 C39.8361158,2.60511468 36.486936,2.54618243 33.8825368,4.20307961 C31.2483923,3.0456102 28.0522664,3.56025488 25.6591733,5.15377966 C23.2660802,6.74730443 21.6285183,9.29923955 20.7389068,12.0241055 C19.9194662,14.3695524 19.7783746,16.8967893 20.3316945,19.3181004 C21.2354643,22.7367236 23.7578178,25.5021969 27.0902378,26.7280731 C28.3920672,27.2385568 29.8686255,27.0205751 30.9653829,26.1559922 C30.9653829,26.1559922 32.4590901,24.8587303 32.9264799,23.2961818 C33.2854622,22.0960376 33.4776169,20.7630781 32.9729032,19.9143644 Z" id="Path" fill="#D69C09"></path>
                        <path d="M73.790981,28.5523837 C73.7364141,28.7890083 73.7008471,29.0295099 73.6846105,29.2716518 L54.5893498,40.1396565 L49.9479783,37.5035948 L45,43.894182 L52.7569518,49.3485951 C54.0441719,50.2537255 55.7824818,50.2119443 57.0234977,49.2460465 L76.713995,33.9207568 C78.5334514,34.5852094 80.5798242,34.0696166 81.8535353,32.6258266 C83.1272464,31.1820365 83.3625114,29.1113239 82.4444119,27.4251559 C81.5263125,25.7389879 79.6464278,24.789216 77.7230126,25.0397689 C75.7995974,25.2903219 74.2340094,26.6889171 73.790981,28.5523919 L73.790981,28.5523837 Z" id="Path" fill="#A0616A"></path>
                        <path d="M53.5775324,41.12578 L47.319321,49.213023 C46.9590008,49.6786326 46.4132653,49.9648047 45.8243219,49.9969687 C45.2353785,50.0291328 44.6615609,49.804103 44.2523941,49.3805175 L37.1676727,42.0450798 C34.7195348,40.1400214 34.2793811,36.6188379 36.183637,34.1728967 C38.0878928,31.7269555 41.6182327,31.2789174 44.0762905,33.171234 L52.962076,38.1253374 C53.4767986,38.4125187 53.8406611,38.9088678 53.9588477,39.4850453 C54.0770343,40.0612227 53.9378386,40.6601582 53.5775324,41.12578 L53.5775324,41.12578 Z" id="Path" fill="#BEBBB7"></path>
                    </g>
                </g>
            </g>
        </g>
    </g>
</svg>