<?xml version="1.0" encoding="UTF-8"?>
<svg width="275px" height="266px" viewBox="0 0 275 266" version="1.1" xmlns="http://www.w3.org/2000/svg" xmlns:xlink="http://www.w3.org/1999/xlink">
    <title>undraw_visual_data_re_mxxo</title>
    <g id="Page-2---Illustration-(Sep--21)" stroke="none" stroke-width="1" fill="none" fill-rule="evenodd">
        <g id="Self-serve-solutions" transform="translate(-130.000000, -506.000000)" fill-rule="nonzero">
            <g id="your-business-footprint" transform="translate(1.000000, 456.000000)">
                <g id="undraw_visual_data_re_mxxo" transform="translate(129.000000, 50.000000)">
                    <polygon id="Path" fill="#9E616A" points="272.999226 261 268.256218 260.999619 266 243 273 243"></polygon>
                    <path d="M274.999731,266 L260,265.999449 L260,265.810623 C260.000224,262.601562 262.614009,260.000173 265.838312,260 L265.838691,260 L275,260.000378 L274.999731,266 Z" id="Path" fill="#242423"></path>
                    <polygon id="Path" fill="#9E616A" points="254.999226 261 250.256218 260.999619 248 243 255 243"></polygon>
                    <path d="M255.999731,266 L241,265.999449 L241,265.810623 C241.000224,262.601562 243.614009,260.000173 246.838312,260 L246.838691,260 L256,260.000378 L255.999731,266 Z" id="Path" fill="#242423"></path>
                    <path d="M50,264.616318 L50,117.418254 C50,115.530404 51.524117,114 53.4042105,114 L68.5957895,114 C70.475883,114 72,115.530404 72,117.418254 L72,117.418254 L72,265 L50,264.616318 Z" id="ae5c11dc-7e77-468a-a39f-cc8da6ee1565" fill="#1C4637"></path>
                    <path d="M101,265 L101,148.405186 C101,146.524554 102.524117,145 104.404211,145 L119.595789,145 C121.475883,145 123,146.524554 123,148.405186 L123,148.405186 L123,264.749051 L101,265 Z" id="bc696f83-47b6-45c9-967f-bb64f1f3bee5" fill="#1C4637"></path>
                    <path d="M11.1631826,126 C10.7041726,126 10.2881264,125.7316 10.1010422,125.315047 C9.91395796,124.898495 9.99081022,124.411562 10.2972412,124.071937 L61.3379271,67.4951122 L111.569148,95.526824 L162.099184,9 L213.57514,51.1057283 C213.896477,51.3681372 214.052436,51.7810465 213.984216,52.1887738 C213.915996,52.5965011 213.633973,52.9370347 213.244479,53.0819807 C212.854985,53.2269266 212.417259,53.1542399 212.096341,52.8913261 L162.736228,12.5162455 L112.430206,98.6595261 L61.8252174,70.4192881 L12.0298299,125.615519 C11.8093213,125.860615 11.4940125,126 11.1631826,126 Z" id="Path" fill="#1C4637"></path>
                    <circle id="a1f8771a-4bf9-4603-9747-6ae739e4ad47" fill="#FF8153" cx="11" cy="125" r="11"></circle>
                    <circle id="ffdbdf53-78c2-412f-9ede-372406e5d245" fill="#E0DFDC" cx="61" cy="69" r="11"></circle>
                    <circle id="b7cff929-f00d-4f86-944c-e500b6ceb6ad" fill="#E0DFDC" cx="112" cy="97" r="11"></circle>
                    <circle id="eabc0b76-6faa-4fa0-934c-daff28b491dd" fill="#FF8153" cx="162" cy="11" r="11"></circle>
                    <circle id="a7ca0488-8ee6-49e2-b245-2872b84c042e" fill="#FF8153" cx="259" cy="91" r="11"></circle>
                    <path d="M254.919659,176.381517 C258.957444,176.867284 269.282953,173.188351 269.842574,178.78519 C275.157213,194.41035 274.999505,254.306339 274.999505,254.306339 L266.908376,254.691148 C266.908376,254.691148 260.442817,207.100161 257.385576,196.918714 C255.851394,209.293778 256.120197,256.615191 256.120197,256.615191 L248.799652,257 C248.799652,257 242.233058,216.703829 242.195577,204.87647 C241.397537,196.213075 243.354827,183.374924 242.517153,175 C246.520841,176.267326 250.734825,176.736703 254.919697,176.381463 L254.919659,176.381517 Z" id="b579ef19-595a-43de-9b6d-0ead8268ca48" fill="#242423"></path>
                    <path d="M201,264.555958 L201,94.939029 C201,92.7637675 202.524175,91 204.404211,91 L219.595789,91 C221.475825,91 223,92.76338 223,94.939029 L223,265 L201,264.555958 Z" id="b3465432-03e0-48eb-8016-b04aa244e72c" fill="#1C4637"></path>
                    <path d="M241.729826,130.02454 C240.067558,126.669843 238.037126,123.505496 235.675041,120.588399 C235.181492,120.018677 234.732016,119.413142 234.330412,118.77691 C233.480132,117.320691 233.227026,115.610708 232.689174,114.017847 C231.186354,109.551589 227.437212,105.963748 226.523655,101.345231 C226.191453,99.6664804 223.385264,104.545754 224.123097,106.62744 C225.440043,110.394869 225.610099,114.38483 227.28693,118.023424 C228.963761,121.662019 230.933247,125.152259 232.3807,128.872839 C233.203297,130.984941 233.859792,133.167317 235.066003,135.119353 C236.272214,137.071389 238.154695,138.707195 240.428699,139 C240.413308,137.584848 240.631041,136.176635 241.073382,134.830452 C241.567679,133.292248 242.445643,131.480758 241.729826,130.02454 Z" id="ac7870c5-efcc-4c4b-b17f-07e0bff4d096" fill="#9E616A"></path>
                    <path d="M264.611926,132.563064 C264.508368,129.840414 264.952894,127.124092 265.921355,124.56168 C266.292024,123.579797 266.727157,122.582512 266.690896,121.53902 C266.638519,120.568689 266.155038,119.679218 265.715875,118.801299 C264.200967,115.77864 263.137308,112.575006 262.089765,109.379073 L260.075259,103.353007 C259.418458,102.892704 263.254149,102.733073 264.072039,103.81507 C266.747302,107.36525 268.773895,111.442953 270.893175,115.320428 C271.433736,116.244387 271.89457,117.208929 272.271097,118.204469 C272.788687,119.817872 273.033507,121.499887 272.996319,123.187044 C272.996319,126.340621 272.561206,129.482646 272.109957,132.60927 C271.823897,134.569185 271.449199,136.702374 269.89803,138 C268.286357,136.028533 266.666722,134.103272 264.611926,132.563064 Z" id="be4b35b3-6955-40b7-9549-45fdba6a2930" fill="#9E616A"></path>
                    <circle id="a7d383a2-21d6-4551-be8a-8c82a5e576cb" fill="#9E616A" cx="255" cy="122" r="8"></circle>
                    <path d="M249.085657,113.369162 C248.903839,112.876647 249.016439,112.323389 249.376194,111.941613 C249.574387,111.785065 249.83759,111.726669 250.050057,111.577275 C250.352114,111.322749 250.599325,111.009261 250.776637,110.655901 C251.896192,109.085481 253.983165,108.554497 255.71442,109.399591 C257.026071,110.087741 257.818045,111.465639 258.984607,112.393371 C259.576816,112.874118 260.263741,113.230914 260.859507,113.711662 C262.052899,114.744956 262.901286,116.120368 263.290152,117.652244 C263.67701,119.17376 263.902877,120.731893 263.964015,122.300847 C264.026109,122.771606 264.007741,123.249528 263.909699,123.714103 C263.789005,124.103732 263.6089,124.472298 263.375773,124.806726 C262.176697,126.627629 260.596304,128.281253 258.61597,129.220901 C256.635635,130.160549 254.226789,130.313523 252.273792,129.330171 C252.07716,129.250485 251.90799,129.115031 251.787018,128.94041 C251.676023,128.674536 251.649444,128.380842 251.710899,128.099289 C251.816843,126.986205 251.597161,125.866282 251.078676,124.87626 C250.715191,124.147979 250.17016,123.521412 249.879597,122.767704 C249.60928,121.923919 249.49352,121.038068 249.537911,120.152965 C249.503428,117.859631 249.658825,115.576254 249.085657,113.369162 Z" id="fb091cb1-8ad4-4d57-b74d-c940c723d6bf" fill="#2D293D"></path>
                    <path d="M0,264.786513 L0,182.901624 C0,181.851624 1.52417544,181 3.40421053,181 L18.5957895,181 C20.4758246,181 22,181.852399 22,182.901624 L22,265 L0,264.786513 Z" id="ef6ae9ea-be37-4bc6-b1be-067860dc7e9d" fill="#1C4637"></path>
                    <path d="M151,264.499383 L151,72.4595517 C151,69.9966699 152.524175,68 154.404211,68 L169.595789,68 C171.475825,68 173,69.9966699 173,72.4595517 L173,265 L151,264.499383 Z" id="b32730d1-ac43-40b1-a176-73e18bf362e5" fill="#FF8153"></path>
                    <circle id="Oval" fill="#A0616A" cx="223.5" cy="102.5" r="3.5"></circle>
                    <circle id="Oval" fill="#A0616A" cx="262.5" cy="100.5" r="3.5"></circle>
                    <path d="M270.902473,143.978218 C271.242661,143.666326 274.016103,127.415517 274,127.049307 C273.957085,125.047191 267.859909,122.760541 266.639653,123.556194 C265.488401,124.306856 263.483772,132.919348 262.193659,134.48781 L260.828908,132.094915 L249.982185,132.094915 L249.324765,133.31818 C247.90152,132.459115 246.621192,131.667067 246.164557,131.40499 C246.007616,131.29846 245.836706,131.21422 245.656698,131.15467 C244.529271,130.902073 243.471195,130.403826 242.557634,129.695325 C241.666653,129.008346 237.531681,121.813527 236.423773,122.003703 C235.172526,122.21329 230.952105,125.869415 231,129.378053 C231.531715,129.366685 238.443487,143.21375 238.540476,143.729842 C239.071191,145.911097 240.82368,177.721695 241.389267,179.204346 C243.994805,178.952066 241.937802,178.501843 244.459665,179.204346 C247.17522,179.961188 250.041854,179.142247 252.842632,178.83951 C254.008837,178.723803 255.180477,178.671976 256.352322,178.684261 C260.613535,178.703667 266.695448,178.940422 270.821076,180 C270.844343,177.290897 268.469685,171.430229 267.590302,168.872494 C267.475086,168.108036 267.479006,167.330292 267.601924,166.567039 C267.714319,165.631669 269.982629,145.012482 270.902473,143.978218 Z" id="Path" fill="#BEBBB7"></path>
                </g>
            </g>
        </g>
    </g>
</svg>