<?xml version="1.0" encoding="UTF-8"?>
<svg width="274px" height="242px" viewBox="0 0 274 242" version="1.1" xmlns="http://www.w3.org/2000/svg" xmlns:xlink="http://www.w3.org/1999/xlink">
    <title>undraw_new_ideas_jdea copy 2</title>
    <g id="Page-2---Illustration-(Sep--21)" stroke="none" stroke-width="1" fill="none" fill-rule="evenodd">
        <g id="Business-Home" transform="translate(-131.000000, -2143.000000)">
            <g id="Carbon-offsetting" transform="translate(0.000000, 2036.000000)">
                <g id="Carbon-offsetting-illustration" transform="translate(131.000000, 94.643643)">
                    <g id="undraw_new_ideas_jdea-copy-2" transform="translate(0.000000, 12.356357)">
                        <path d="M274,77.3080421 C274,87.3665817 271.615474,95.6462155 267.479115,102.738959 C266.11391,105.075158 264.564161,107.298707 262.844644,109.388406 C247.638768,127.969677 219.368205,138.139756 193.817067,154.613224 C118.394548,203.238555 110.224825,125.321338 113.631262,77.3080421 C115.005287,57.9345569 122.556699,40.1883988 134.553654,26.6006474 C137.073208,23.7429171 139.794857,21.0695935 142.697614,18.6012913 C156.317636,7.01266395 173.913743,0 193.817067,0 C227.964449,0 257.125265,20.5775355 268.687112,49.5748437 C272.202197,58.3990233 274.005199,67.8106888 274,77.3080421 L274,77.3080421 Z" id="Path" fill="#1C4637" fill-rule="nonzero"></path>
                        <g id="Group" transform="translate(0.000000, 25.000000)" fill-rule="nonzero">
                            <path d="M137.222223,150 C137.222223,150 155,150.72414 155,155.068966 C155,159.413792 135,155.068966 135,155.068966 L137.222223,150 Z" id="Path" fill="#8E6265"></path>
                            <path d="M111.163387,217 L78.1202944,214.783164 L76.6517109,197.048484 L69.3088021,212.566329 L37,208.132657 C37.7342903,180.052751 49.482961,152.71179 50.217237,149.017063 C50.9515129,145.322336 52.7064955,130.055713 52.7064955,130.055713 C55.9153427,123.205723 72.7305342,122.562844 85.9111087,123.183534 C91.3742798,123.434795 96.2205821,123.907692 99.2091074,124.247616 C101.184309,124.469279 102.351894,124.631882 102.351894,124.631882 C107.616705,130.092694 111.009214,137.53383 113.094575,145.846962 C120.613706,175.796425 111.163387,217 111.163387,217 Z" id="Path" fill="#242423"></path>
                            <circle id="Oval" fill="#8E6265" cx="74.5" cy="28.5" r="18.5"></circle>
                            <path d="M61.4515924,33 C61.4515924,33 56.2580439,55.5454538 48.0967419,62.0909089 C39.9354399,68.6363639 80,62.0909089 80,62.0909089 C80,62.0909089 71.0967683,47.5454516 77.7741935,41 C84.4516188,34.4545415 61.4515924,33 61.4515924,33 Z" id="Path" fill="#8E6265"></path>
                            <path d="M99,126.915094 L86.9180917,128.251673 L53.1195487,132 C53.1195487,132 52.9593515,131.571394 52.6753213,130.794127 C50.2210763,124.118372 38.4014206,91.6331311 37.0978035,81.8773553 C35.6412825,70.9811292 50.9347644,57.9056601 50.9347644,57.9056601 C50.9347644,57.9056601 65.4999886,55 69.869543,55 C74.2390975,55 91.7173865,61.5377345 91.7173865,61.5377345 L98.2353013,120.021412 L98.7960769,125.084502 L99,126.915094 Z" id="Path" fill="#BEBBB7"></path>
                            <path d="M80.7062767,62.1747921 C80.7062767,62.1747921 73.4419735,71.7308153 79.2534172,88.6376405 C85.0648609,105.544466 93.0555938,132.007309 93.0555938,132.007309 L135.188556,157 L141,149.649207 L101.772759,118.775884 C101.772759,118.775884 100.319897,62.9098706 93.0555938,60.7046322 C85.7912907,58.4993939 80.7062767,62.1747921 80.7062767,62.1747921 Z" id="Path" fill="#BEBBB7"></path>
                            <path d="M44,126.057543 C44,126.057543 53.9629362,147.010252 58.2327652,144.842721 C62.5025942,142.67519 47.5581913,121 47.5581913,121 L44,126.057543 Z" id="Path" fill="#8E6265"></path>
                            <path d="M43.349761,69 L4.00647969,100.952381 C4.00647969,100.952381 -10.84004,111.11905 16.6260377,118.380954 C44.0921154,125.642858 46.3190655,130 46.3190655,130 C46.3190655,130 49.2883701,120.559529 53,122.011906 L21.0799756,106.761905 L47.0613881,91.5119047 L43.349761,69 Z" id="Path" fill="#BEBBB7"></path>
                            <path d="M26.7530841,43.2931643 C28.7825249,42.2919517 33.2639784,40.2713412 37.0812365,37.8369697 C36.8135614,29.9174453 37.7925341,22.7282342 40.6582048,18.9174512 C42.2667352,15.2791214 45.6445372,11.6365163 48.2900196,8.76788513 C54.7866969,1.72334406 69.1523328,-2.20885361 71.700234,1.31084925 C90.9712232,1.68985212 93,16.7376589 93,16.7376589 C92.8997486,23.0317681 86.333035,23.2309313 80.5806373,23.001572 C81.0957579,27.2984849 79.7229693,31.763255 75.747734,33.7432795 C68.1459548,37.5296461 65.8653982,42.4519255 69.6663078,45.8596896 C73.4672174,49.2674536 80.3088272,58.3547221 71.1866722,60.6265222 C62.0645171,62.8983223 60.9242274,67.4420219 63.5848929,69.3351995 C66.2455584,71.2283772 57.5034239,65.9274667 57.5034239,65.9274667 C57.5034239,65.9274667 55.9830909,75.0147665 48.0011999,72.7429323 C47.2858957,72.5393321 46.5709734,72.0176549 45.8681052,71.2374386 C43.7123926,73.5970337 41.7892445,74.9921755 40.3398397,75 C32.0386774,75.0436937 33.0341269,65.8845983 33.0341269,65.8845983 C33.0341269,65.8845983 23.1810828,68.6411941 26.2555888,67.5327323 C29.3300947,66.4242705 29.4618007,61.7426204 21.2923473,57.1048237 C13.1228939,52.4670271 22.1706155,45.5538165 26.7530841,43.2931643 Z" id="Path" fill="#1D0F09"></path>
                        </g>
                        <text id="CO2" font-family="Inter-Bold, Inter" font-size="53" font-weight="bold" fill="#FFFFFF">
                            <tspan x="135.652344" y="95">CO2</tspan>
                        </text>
                    </g>
                </g>
            </g>
        </g>
    </g>
</svg>