<?xml version="1.0" encoding="UTF-8"?>
<svg width="347px" height="306px" viewBox="0 0 347 306" version="1.1" xmlns="http://www.w3.org/2000/svg" xmlns:xlink="http://www.w3.org/1999/xlink">
    <title>undraw_new_ideas_jdea copy 2</title>
    <g id="Page-2---Illustration-(Sep--21)" stroke="none" stroke-width="1" fill="none" fill-rule="evenodd">
        <g id="Carbon-Offsetting" transform="translate(-948.000000, -230.000000)">
            <g id="Carbon-offsetting-illustration" transform="translate(1110.000000, 375.500000) scale(-1, 1) translate(-1110.000000, -375.500000) translate(925.000000, 215.000000)">
                <g id="undraw_new_ideas_jdea-copy-2" transform="translate(0.000000, 15.000000)">
                    <path d="M347,97.7531441 C347,110.471793 343.980181,120.941082 338.7418,129.909593 C337.012871,132.863629 335.050233,135.675225 332.872596,138.317571 C313.61552,161.812898 277.813019,174.672584 245.45446,195.502672 C149.937621,256.987595 139.591293,158.464172 143.905284,97.7531441 C145.645381,73.2560926 155.208666,50.8167356 170.40189,33.6355293 C173.592713,30.0220356 177.039473,26.6417174 180.715592,23.5206411 C197.964306,8.86725276 220.248426,0 245.45446,0 C288.699502,0 325.629442,26.0195284 340.271635,62.6855462 C344.72322,73.8433932 347.006584,85.7440941 347,97.7531441 L347,97.7531441 Z" id="Path" fill="#1C4637" fill-rule="nonzero"></path>
                    <g id="Group" transform="translate(0.000000, 31.611570)" fill-rule="nonzero">
                        <path d="M173.781429,189.669421 C173.781429,189.669421 196.29562,190.58507 196.29562,196.078941 C196.29562,201.572812 170.967153,196.078941 170.967153,196.078941 L173.781429,189.669421 Z" id="Path" fill="#8E6265"></path>
                        <path d="M140.779909,274.38843 L98.9333655,271.585323 L97.0735171,249.16048 L87.7742859,268.782217 L46.8576642,263.176004 C47.7875866,227.670008 62.6663776,193.098379 63.5962818,188.426534 C64.5261861,183.754689 66.748737,164.450612 66.748737,164.450612 C70.812496,155.789055 92.1076473,154.976159 108.799835,155.760997 C115.718522,156.078708 121.855993,156.676668 125.640731,157.10649 C128.142172,157.386775 129.62083,157.592379 129.62083,157.592379 C136.288308,164.497374 140.584661,173.906413 143.225611,184.41806 C152.748014,222.288042 140.779909,274.38843 140.779909,274.38843 Z" id="Path" fill="#242423"></path>
                        <ellipse id="Oval" fill="#8E6265" cx="94.3485401" cy="36.0371901" rx="23.4288321" ry="23.392562"></ellipse>
                        <path d="M77.823732,41.7272727 C77.823732,41.7272727 71.2465009,70.2351606 60.9108374,78.5116451 C50.5751739,86.7881296 101.313869,78.5116451 101.313869,78.5116451 C101.313869,78.5116451 90.038608,60.1194553 98.4950553,51.8429708 C106.951503,43.5664863 77.823732,41.7272727 77.823732,41.7272727 Z" id="Path" fill="#8E6265"></path>
                        <path d="M125.375912,160.479417 L110.075101,162.169471 L67.2718372,166.909091 C67.2718372,166.909091 67.0689597,166.367135 66.7092572,165.38431 C63.6011441,156.943066 48.632456,115.866686 46.9815249,103.530871 C45.1369527,89.7529981 64.5049753,73.2195537 64.5049753,73.2195537 C64.5049753,73.2195537 82.9507155,69.5454545 88.4844213,69.5454545 C94.0181271,69.5454545 116.153041,77.8121767 116.153041,77.8121767 L124.40748,151.762611 L125.117659,158.1647 L125.375912,160.479417 Z" id="Path" fill="#BEBBB7"></path>
                        <path d="M102.208314,78.6177123 C102.208314,78.6177123 93.0086307,90.7009482 100.368379,112.079 C107.728127,133.457052 117.847778,166.918332 117.847778,166.918332 L171.205945,198.520661 L178.565693,189.225856 L128.8874,150.187688 C128.8874,150.187688 127.047461,79.5471917 117.847778,76.7587499 C108.648094,73.970308 102.208314,78.6177123 102.208314,78.6177123 Z" id="Path" fill="#BEBBB7"></path>
                        <path d="M55.7226277,159.395076 C55.7226277,159.395076 68.3399228,185.888996 73.747334,183.148234 C79.1547452,180.407471 60.2288043,153 60.2288043,153 L55.7226277,159.395076 Z" id="Path" fill="#8E6265"></path>
                        <path d="M54.8991499,87.2479339 L5.07389946,127.650531 C5.07389946,127.650531 -13.7280799,140.505906 21.0556025,149.688314 C55.8392849,158.870721 58.6595465,164.380165 58.6595465,164.380165 C58.6595465,164.380165 62.4199431,152.443041 67.120438,154.279518 L26.6961735,134.996459 L59.5996411,115.7134 L54.8991499,87.2479339 Z" id="Path" fill="#BEBBB7"></path>
                        <path d="M33.8807306,54.7425962 C36.4508619,53.4766001 42.1262792,50.9216132 46.9605441,47.843441 C46.621554,37.8294969 47.8613479,28.7390069 51.4905003,23.9204135 C53.5275807,19.3198807 57.805308,14.7139421 61.1556088,11.0866647 C69.3831526,2.17910447 87.5761295,-2.79301324 90.8028511,1.65752013 C115.208082,2.13675516 117.777372,21.1641472 117.777372,21.1641472 C117.650412,29.1228142 109.334172,29.3746487 102.049201,29.0846323 C102.701562,34.5179189 100.96303,40.1634546 95.9286997,42.667122 C86.3016289,47.4548417 83.4134788,53.678881 88.2270394,57.9878719 C93.0406001,62.2968628 101.704975,73.7873759 90.1524644,76.6599827 C78.5999542,79.5325894 77.1558647,85.2779285 80.5253936,87.6717812 C83.8949225,90.065634 72.8236792,83.3628299 72.8236792,83.3628299 C72.8236792,83.3628299 70.8982939,94.8533825 60.7898407,91.9807326 C59.8839628,91.7232877 58.9785685,91.0636463 58.0884397,90.0770917 C55.358395,93.060712 52.9228753,94.8248169 51.0873152,94.8347107 C40.5745294,94.8899598 41.8351899,83.3086243 41.8351899,83.3086243 C41.8351899,83.3086243 29.3570647,86.7942372 33.2506909,85.3926285 C37.144317,83.9910198 37.3111126,78.0712473 26.965126,72.2069259 C16.6191393,66.3426045 28.0773854,57.6011069 33.8807306,54.7425962 Z" id="Path" fill="#1D0F09"></path>
                    </g>
                    <text id="CO2" transform="translate(243.786496, 96.099174) scale(-1, 1) translate(-243.786496, -96.099174) " font-family="Inter-Bold, Inter" font-size="53" font-weight="bold" fill="#FFFFFF">
                        <tspan x="186.43884" y="115.099174">CO2</tspan>
                    </text>
                </g>
            </g>
        </g>
    </g>
</svg>