<?xml version="1.0" encoding="UTF-8"?>
<svg width="229px" height="207px" viewBox="0 0 229 207" version="1.1" xmlns="http://www.w3.org/2000/svg" xmlns:xlink="http://www.w3.org/1999/xlink">
    <title>Illustration</title>
    <g id="Page-2---Illustration-(Sep--21)" stroke="none" stroke-width="1" fill="none" fill-rule="evenodd">
        <g id="Business-Home" transform="translate(-138.000000, -1249.000000)" fill-rule="nonzero">
            <g id="Self-serve" transform="translate(0.000000, 1130.000000)">
                <g id="make-your-climate-report-illustration" transform="translate(127.667226, 95.643643)">
                    <g id="Illustration" transform="translate(10.332774, 23.356357)">
                        <path d="M4.65354313,41.3355715 C4.65354313,49.4222597 11.2921921,56.0018909 19.5386072,56.0876683 C27.7850224,56.1734458 34.5648045,49.7333932 34.7394596,41.6485188 C34.743915,41.5456832 34.743915,41.438387 34.743915,41.3355715 C34.7464712,36.0631821 31.8794348,31.1902198 27.2233881,28.5533007 C22.5673414,25.9163817 16.8301167,25.9163817 12.17407,28.5533007 C7.51802332,31.1902198 4.65098695,36.0631821 4.65354313,41.3355715 L4.65354313,41.3355715 Z" id="Path" fill="#2A2928" transform="translate(19.698729, 41.332063) scale(-1, 1) translate(-19.698729, -41.332063) "></path>
                        <ellipse id="Oval" fill="#2A2928" transform="translate(13.315924, 25.688515) scale(-1, 1) translate(-13.315924, -25.688515) " cx="13.3159244" cy="25.6885149" rx="7.7505496" ry="7.59999959"></ellipse>
                        <path d="M5.81611748,31.4979777 C8.88063379,32.5961062 12.3183388,31.6943248 14.4143638,29.242479 C16.5103887,26.7906333 16.8156611,23.3140301 15.1778987,20.5469422 C17.1745319,22.6976721 17.743915,25.7773362 16.6443092,28.4784857 C15.5447079,31.1796352 12.9690867,33.0282671 10.0109068,33.2395583 C7.05272678,33.4508495 4.23109522,31.9877223 2.74391498,29.4713365 C3.58491549,30.3815373 4.63938338,31.0771386 5.81611748,31.4979777 Z" id="Path" fill="#2A2928" transform="translate(9.970271, 26.903328) scale(-1, 1) translate(-9.970271, -26.903328) "></path>
                        <g id="screen" transform="translate(155.000000, 102.000000) scale(-1, 1) translate(-155.000000, -102.000000) translate(81.000000, 0.000000)">
                            <path d="M136.775795,204 L11.2242052,204 C5.02814778,203.993023 0.0069954853,198.984795 0,192.804687 L0,11.1953133 C0.0069954853,5.01520496 5.02814778,0.00697747841 11.2242052,0 L136.775795,0 C142.971852,0.00697747841 147.993005,5.01520496 148,11.1953133 L148,192.804703 C147.992995,198.984805 142.971846,203.993023 136.775795,204 L136.775795,204 Z" id="Path" fill="#1C4637"></path>
                            <path d="M138.511732,199 L11.4882683,199 C9.56266171,198.997812 8.00219705,197.44352 8,195.525532 L8,11.474468 C8.00219705,9.5564795 9.56266171,8.00218836 11.4882683,8 L138.511732,8 C140.437338,8.00218836 141.997803,9.5564795 142,11.474468 L142,195.525532 C141.997803,197.44352 140.437338,198.997812 138.511732,199 L138.511732,199 Z" id="Path" fill="#FFFFFF"></path>
                            <circle id="Oval" fill="#FFFFFF" cx="75" cy="3" r="1"></circle>
                            <path d="M16,92 L124,92 L124,73.1943564 C123.96686,69.188451 122.346304,65.3650875 119.504398,62.5879179 L119.47504,62.558787 C117.546091,60.5925228 111.09961,55.6022167 104.429703,56.0253312 C100.90635,56.2481593 97.8898581,57.9732103 95.4642031,61.1526294 C87.9137978,71.0529546 77.9956012,67.711056 72.7554638,64.8378652 C68.1373998,62.3052543 63.4211902,61.1165502 58.7369012,61.3057384 C52.176488,61.5663665 42.9426668,64.0216361 36.2084944,74.2389593 C33.6364748,78.13819 28.0429258,83.4310911 16,86.5416669 L16,92 Z" id="Path" fill="#F1F0EE"></path>
                            <path d="M129.645466,92 L16.3545478,92 C16.1587403,91.9999877 16,91.7880885 16,91.5266937 L16.1720689,91 L129.645452,91.0533875 C129.841264,91.0533875 130,91.2652939 130,91.5266937 C130,91.7880936 129.841264,92 129.645452,92 L129.645466,92 Z" id="Path" fill="#1C4637"></path>
                            <rect id="Rectangle" fill="#1C4637" x="37" y="71" width="1" height="21"></rect>
                            <rect id="Rectangle" fill="#1C4637" x="58" y="62" width="1" height="30"></rect>
                            <rect id="Rectangle" fill="#1C4637" x="79" y="68" width="1" height="24"></rect>
                            <rect id="Rectangle" fill="#1C4637" x="100" y="56" width="1" height="36"></rect>
                            <rect id="Rectangle" fill="#1C4637" x="121" y="64" width="1" height="27"></rect>
                            <circle id="Oval" fill="#48A12A" cx="57" cy="62" r="2"></circle>
                            <circle id="Oval" fill="#48A12A" cx="100" cy="56" r="2"></circle>
                            <circle id="Oval" fill="#48A12A" cx="79" cy="68" r="2"></circle>
                            <circle id="Oval" fill="#48A12A" cx="38" cy="70" r="2"></circle>
                            <circle id="Oval" fill="#48A12A" cx="121" cy="65" r="2"></circle>
                            <path d="M59,164.905986 L59,128.837585 C59,128.374999 59.3463925,128 59.7736865,128 L63.2263166,128 C63.6536101,128 64,128.375 64,128.837585 L64,128.837585 L64,165 L59,164.905986 Z" id="ba0cc859-1ca5-421a-9acf-7fb9aa3b4e23" fill="#1C4637"></path>
                            <path d="M70,166 L70,136.8513 C70,136.381141 70.3463891,136 70.7736829,136 L74.2263171,136 C74.6536109,136 75,136.381141 75,136.8513 L75,136.8513 L75,165.937264 L70,166 Z" id="a524792d-c043-478e-a7da-ec48af772355" fill="#1C4637"></path>
                            <path d="M95.0018395,165.890276 L95.0018395,123.973439 C94.9716539,123.472291 95.316526,123.038057 95.7749535,123 L99.2250429,123 C99.6834851,123.038025 100.028374,123.472279 99.998157,123.973439 L99.998157,166 L95.0018395,165.890276 Z" id="fd6a765d-e5c4-40cb-8615-8d176b643a05" fill="#1C4637"></path>
                            <path d="M46,165.946634 L46,145.475404 C46,145.212905 46.3464033,145 46.7736865,145 L50.2263166,145 C50.6535936,145 51,145.2131 51,145.475404 L51,166 L46,165.946634 Z" id="bd64d803-c830-42f7-b93c-47122685f128" fill="#1C4637"></path>
                            <path d="M83,165.875485 L83,118.109228 C83,117.496635 83.3464033,117 83.7736834,117 L87.2263135,117 C87.6535936,117 88,117.496635 88,118.109228 L88,166 L83,165.875485 Z" id="f4fc54bd-288c-4bcd-8f44-6b7e88ac2463" fill="#48A12A"></path>
                            <path d="M115.665354,166 L31.3346457,166 C31.149826,166 31,165.776142 31,165.5 C31,165.223858 31.149826,165 31.3346457,165 L115.665354,165 C115.850174,165 116,165.223858 116,165.5 C116,165.776142 115.850174,166 115.665354,166 Z" id="Path" fill="#1C4637"></path>
                        </g>
                        <g id="person" transform="translate(28.000000, 118.500000) scale(-1, 1) translate(-28.000000, -118.500000) translate(0.000000, 30.000000)">
                            <polygon id="Path" fill="#F4C4B3" points="43.9989666 171 39.9338615 170.99967 38 156 44 156"></polygon>
                            <path d="M45.9997745,176 L33,175.999539 L33,175.842185 C33.0001962,173.167973 35.2654682,171.000153 38.0598599,171 L38.060181,171 L46,171.000307 L45.9997745,176 Z" id="Path" fill="#1C4637"></path>
                            <polygon id="Path" fill="#F4C4B3" points="12.9381693 171 9 169.993914 11.1879102 155 17 156.485033"></polygon>
                            <path d="M12.6414284,177 L0,173.305134 L0.0427516407,173.130354 C0.769482103,170.160234 3.56130586,168.396256 6.27874144,169.190223 L6.27905438,169.190314 L14,171.447053 L12.6414284,177 Z" id="Path" fill="#1C4637"></path>
                            <polygon id="Path" fill="#1C4637" points="46.6769386 86 50 89.8636158 45.7023756 168.379394 36.5221874 168.379394 31.8937696 107.964474 17.5435903 170 8 167.657405 16.6776109 88.8644048"></polygon>
                            <path d="M45,15.9592931 C44.9774726,9.89214959 40.0468216,4.98879301 33.9796467,4.99981118 C27.9124717,5.01124547 23,9.932815 23,16 C23,21.0755045 26.437827,25.3492887 31.1135657,26.6173858 C32.0271378,26.8651538 31.0083211,31.9981972 32,32 C33.054417,32.0019755 40.0393585,33.5834449 41,32 C41.870738,30.5647448 38.7267833,25.9754959 39.4986709,25.5291274 C42.775265,23.6343328 44.9849363,20.0977064 45,16.0407069 C45,16.0135714 45,15.9864334 45,15.9592931 Z" id="Path" fill="#F4C4B3"></path>
                            <path d="M18.7602405,34.5844358 L27.886884,30 L41.9220579,30.2470801 L54,36.4365217 L47.1282427,70.8062935 L50.0966571,88.7266932 L50.0966369,88.7266932 C38.62344,91.6568604 26.6117037,91.7558738 15.0918994,89.0152391 L15,88.9933885 C15,88.9933885 21.8222025,64.7510618 18.9179814,57.3530488 L18.7602405,34.5844358 Z" id="Path" fill="#E0DFDC"></path>
                            <path d="M17.2654389,58.8801327 C17.666653,59.8580227 18.503779,60.6170738 19.5515637,60.9530411 C20.5993485,61.2890084 21.7501609,61.1673806 22.6943413,60.6208852 L41.3944477,70 L42,65.6778397 L23.8292882,55.5115496 C22.7324469,54.0350407 20.6450128,53.570251 18.9704007,54.4296658 C17.2957887,55.2890807 16.5633174,57.2010527 17.2654389,58.8801327 Z" id="Path" fill="#F4C4B3"></path>
                            <path d="M41.3657886,60.858944 C40.7663442,61.7745391 39.8026819,62.3705026 38.7341043,62.4864726 C37.6655267,62.6024425 36.6018009,62.2265061 35.8291545,61.4598204 L16,67 L16.1726065,61.2309188 L35.8979457,55.9707703 C37.2685637,54.6954961 39.3515944,54.6742796 40.7465851,55.9213849 C42.1415758,57.1684902 42.4075927,59.2897276 41.3657886,60.8589575 L41.3657886,60.858944 Z" id="Path" fill="#F4C4B3"></path>
                            <path d="M49.230425,36.2505111 L53.1717722,36 C53.1717722,36 57.7862692,42.1771979 55.2267413,48.8803512 C55.2267413,48.8803512 55.6701604,72.9594073 45.4497115,71.9703436 C35.2292626,70.98128 32,70.9812834 32,70.9812834 L35.0677869,62.2995569 L41.93084,60.1498367 C41.93084,60.1498367 39.8156404,50.6837273 43.8194825,46.745184 L49.230425,36.2505111 Z" id="Path" fill="#E0DFDC"></path>
                            <path d="M25,35 L24.454647,32.0074322 C24.454647,32.0074322 13.8473695,31.7979237 12.2571767,44.8439777 C12.2571767,44.8439777 5.025073,64.3687581 12.1137948,66.8826948 C19.2025167,69.3966315 27,66.8826948 27,66.8826948 L26.4126561,58.2724289 L18.6128443,56.5683308 C18.6128443,56.5683308 22.6420924,50.9878754 20.4481121,46.1474352 L25,35 Z" id="Path" fill="#E0DFDC"></path>
                        </g>
                        <path d="M4.65354484,39.3461715 C7.01058759,44.9478331 13.1017698,48.9355845 20.2459173,48.9355845 C26.3642539,48.9355845 31.7121242,46.0118302 34.6027745,41.6485321 C34.6072282,41.5456966 34.6072282,41.4384004 34.6072282,41.3355849 C34.6072282,33.5746739 28.4749455,27.1408443 20.5783895,26.6163832 C12.6818335,26.0919221 5.72101186,31.6561688 4.65354484,39.3461682 L4.65354484,39.3461715 Z" id="Path" fill="#2A2928" transform="translate(19.630386, 37.758881) scale(-1, 1) translate(-19.630386, -37.758881) "></path>
                    </g>
                </g>
            </g>
        </g>
    </g>
</svg>