<?xml version="1.0" encoding="UTF-8"?>
<svg width="417px" height="253px" viewBox="0 0 417 253" version="1.1" xmlns="http://www.w3.org/2000/svg" xmlns:xlink="http://www.w3.org/1999/xlink">
    <title>undraw_Meeting_re_i53h</title>
    <g id="Page-2---Illustration-(Sep--21)" stroke="none" stroke-width="1" fill="none" fill-rule="evenodd">
        <g id="Climate-Advisory" transform="translate(-905.000000, -261.000000)" fill-rule="nonzero">
            <g id="undraw_Meeting_re_i53h" transform="translate(905.000000, 261.000000)">
                <circle id="Oval" fill="#F2F2F2" cx="204.5" cy="3.5" r="3.5"></circle>
                <circle id="Oval" fill="#F2F2F2" cx="204.5" cy="18.5" r="3.5"></circle>
                <circle id="Oval" fill="#F2F2F2" cx="219.5" cy="3.5" r="3.5"></circle>
                <circle id="Oval" fill="#F2F2F2" cx="219.5" cy="18.5" r="3.5"></circle>
                <circle id="Oval" fill="#F2F2F2" cx="234.5" cy="3.5" r="3.5"></circle>
                <circle id="Oval" fill="#F2F2F2" cx="234.5" cy="18.5" r="3.5"></circle>
                <circle id="Oval" fill="#F2F2F2" cx="234.5" cy="32.5" r="3.5"></circle>
                <circle id="Oval" fill="#F2F2F2" cx="234.5" cy="46.5" r="3.5"></circle>
                <circle id="Oval" fill="#F2F2F2" cx="249.5" cy="3.5" r="3.5"></circle>
                <circle id="Oval" fill="#F2F2F2" cx="249.5" cy="18.5" r="3.5"></circle>
                <circle id="Oval" fill="#F2F2F2" cx="249.5" cy="32.5" r="3.5"></circle>
                <circle id="Oval" fill="#F2F2F2" cx="249.5" cy="46.5" r="3.5"></circle>
                <circle id="Oval" fill="#F2F2F2" cx="264.5" cy="3.5" r="3.5"></circle>
                <circle id="Oval" fill="#F2F2F2" cx="264.5" cy="18.5" r="3.5"></circle>
                <circle id="Oval" fill="#F2F2F2" cx="279.5" cy="3.5" r="3.5"></circle>
                <circle id="Oval" fill="#F2F2F2" cx="279.5" cy="18.5" r="3.5"></circle>
                <path d="M390.043491,191 L363.325023,191 C363.325023,191.766667 335.788334,192.388889 335.788334,192.388889 C335.356123,192.713762 334.962211,193.086514 334.614145,193.5 C333.56822,194.745287 332.996548,196.319362 333,197.944444 L333,199.055556 C333.001432,202.890281 336.115142,205.998587 339.956536,206 L390.04348,206 C393.884077,205.99667 396.996665,202.889486 397,199.055556 L397,197.944444 C396.994685,194.111338 393.883263,191.005312 390.043491,191 Z" id="Path" fill="#1C4637"></path>
                <rect id="Rectangle" fill="#1C4637" x="361" y="205" width="7" height="47"></rect>
                <path d="M389,251.578021 C389,252.314638 378.030977,251.862941 364.5,251.862941 C350.969023,251.862941 340,252.314638 340,251.578021 C340,250.841403 350.969023,245 364.5,245 C378.030977,245 389,250.841398 389,251.578021 Z" id="Path" fill="#1C4637"></path>
                <polygon id="Path" fill="#FFB8B8" points="327.998895 246 321.223542 245.99945 318 220 328 220.00055"></polygon>
                <path d="M316.5,244 L330,244 L330,252 L308,252 L308,252 C308,247.581721 311.805585,244 316.5,244 L316.5,244 Z" id="Path" fill="#2A2928"></path>
                <polygon id="Path" fill="#FFB8B8" points="317.333462 242 311 239.966044 315.652228 214 325 217.0019"></polygon>
                <path d="M305.613338,237.1631 L318.815138,237.1631 L318.815138,245.475346 L297.301092,245.475346 L297.301092,245.475346 C297.301092,243.270801 298.176844,241.156549 299.735692,239.597701 C301.294541,238.038852 303.408793,237.1631 305.613338,237.1631 Z" id="Path" fill="#2A2928" transform="translate(308.058115, 241.319223) rotate(17.422620) translate(-308.058115, -241.319223) "></path>
                <path d="M370.889196,185.668206 C370.731673,184.342654 370.448495,183.035071 370.043483,181.763096 L368.76935,180.161 L365.453266,176 L365.308738,176.005563 C365.063687,176.016689 364.045449,176.072317 362.471093,176.194699 L362.454251,176.194699 C361.480569,176.272579 360.289816,176.37271 358.937961,176.500655 C358.581794,176.539595 358.209057,176.572972 357.825181,176.611912 L357.825181,182.419511 L364.780056,182.419511 C365.479152,182.420432 366.069349,182.939135 366.159903,183.632208 C366.165339,183.6934 366.171031,183.749028 366.171031,183.810219 C366.170724,184.578159 365.548143,185.200621 364.780056,185.200928 L324.386086,185.200928 C323.871402,185.542543 323.377194,185.914036 322.906006,186.313494 C321.482949,187.414855 320.457522,188.949771 319.984958,190.685882 C317.626004,201.055005 313.32512,220.391416 312.056401,226.071097 C311.869311,226.94164 312.154746,227.846342 312.807577,228.45199 C313.044401,228.672739 313.322351,228.844745 313.625593,228.958208 L318.644231,230.838446 C318.850485,230.914694 319.065381,230.965142 319.284024,230.988643 C319.311737,230.988643 319.334015,230.994205 319.361996,230.994205 C319.413748,230.998839 319.465712,231.000696 319.517663,231 C320.556242,230.995632 321.486054,230.355267 321.860065,229.386546 L325.821628,218.995172 L331.925349,202.97421 L334.339993,196.638142 C337.138517,197.294557 360.618292,202.490244 368.480005,194.118178 C369.255587,193.293336 369.867378,192.328689 370.282842,191.275542 C370.944431,189.485038 371.152736,187.558711 370.889196,185.668206 L370.889196,185.668206 Z" id="Path" fill="#2A2928"></path>
                <path d="M378.483418,187.28735 C378.361123,186.792256 378.22198,186.280472 378.060553,185.763126 L373.468847,180 L373.324272,180.005563 C373.034572,180.022251 371.659993,180.094569 369.550569,180.267017 C367.157427,180.46728 363.812295,180.789927 360.055444,181.296147 C359.944297,181.307273 359.82744,181.323961 359.716014,181.34065 C359.348589,181.390716 358.975731,181.440782 358.602874,181.49641 L358.602874,182.52554 L365.560004,182.52554 C366.259326,182.526461 366.849714,183.045167 366.940298,183.738244 C366.945736,183.799435 366.95143,183.855064 366.95143,183.916256 C366.951122,184.684199 366.32834,185.306664 365.560004,185.306971 L340.970629,185.306971 C339.89662,185.657432 338.861227,186.024581 337.870626,186.419544 C332.672348,188.477803 328.781787,191.175792 327.985797,194.685958 C327.718643,195.865285 327.423789,197.161432 327.112076,198.541022 C325.954365,203.669982 324.546364,209.950454 323.271796,215.657952 L323.271796,215.663514 C323.010091,216.842841 322.748653,217.988791 322.498085,219.101364 C321.434952,223.885426 320.533514,227.940753 320.054669,230.07133 C320.043537,230.132521 320.032656,230.18815 320.021241,230.249341 L320.021241,230.260467 C319.965756,230.691455 320.019391,231.129469 320.177231,231.534363 L320.182669,231.539892 L320.182669,231.545455 C320.335756,231.93321 320.584756,232.275812 320.906372,232.541207 C321.121345,232.718463 321.36387,232.859394 321.624347,232.958422 L326.644612,234.83867 C326.924158,234.943145 327.219887,234.997749 327.518328,235 C327.936683,235.001004 328.348431,234.895723 328.714904,234.694035 C329.241037,234.409131 329.647757,233.945402 329.861467,233.386763 L340.670025,205.038413 L342.345441,200.638188 C345.144873,201.294606 368.632261,206.484757 376.496523,198.118211 C378.050171,196.437456 378.936771,194.2478 378.989958,191.960122 C379.044879,190.38636 378.874305,188.812836 378.483418,187.28735 L378.483418,187.28735 Z" id="Path" fill="#2A2928"></path>
                <path d="M377.346407,137.60076 C377.255872,137.493707 377.159241,137.386655 377.057347,137.285236 C373.993584,134.085 369.572295,132.53685 365.166182,133.121448 C363.27142,133.368752 361.394436,133.735728 359.54663,134.220147 C357.160225,134.829831 354.975147,136.047485 353.207185,137.75286 C350.422807,140.435331 348.898503,144.15529 349.005253,148.007385 C349.027935,148.779291 349.033498,149.568101 349.022423,150.368179 C349.022423,150.740047 349.016605,151.117549 349.011082,151.49505 L354.602117,151.49505 C354.844715,151.494348 355.086513,151.522724 355.322271,151.579566 C356.726676,151.913063 357.718258,153.159198 357.720893,154.593945 L357.720893,180.804963 C358.100771,180.912016 358.480649,181.019068 358.854993,181.131756 C358.974074,181.171162 359.087574,181.204968 359.200814,181.238774 C359.331236,181.278215 359.461657,181.317655 359.58651,181.357096 C360.737505,181.71206 361.8621,182.087684 362.960294,182.483967 L364.809019,182.483967 C365.521509,182.4849 366.123014,183.010272 366.215304,183.712256 C366.601,183.864384 366.975066,184.016511 367.343592,184.168639 C368.653511,184.709537 369.895317,185.250435 371.03523,185.77443 C372.571936,186.47309 373.938594,187.137944 375.084047,187.718282 C375.4442,187.900651 375.842173,187.997108 376.246386,188 C376.777186,187.998279 377.293627,187.828552 377.720773,187.515446 C377.809401,187.450453 377.894522,187.380866 377.975782,187.306974 C378.591931,186.73307 378.882755,185.893648 378.752703,185.064501 C378.167341,180.638621 377.996513,176.168323 378.242414,171.711081 C378.401069,167.964235 378.741356,164.121605 379.183808,160.408566 C379.421924,158.397101 379.688284,156.425077 379.966269,154.526299 C380.232908,152.712037 380.516433,150.971022 380.794162,149.32579 C381.532971,145.097894 380.259865,140.768352 377.346407,137.60076 L377.346407,137.60076 Z" id="Path" fill="#48A12A"></path>
                <path d="M355.042276,138.531773 C354.749418,138.408092 354.448044,138.30491 354.140404,138.222997 C350.996408,137.390255 347.707019,138.950611 346.412091,141.889005 L342.490788,150.792968 L342,151.915788 L355.544525,151.915788 C355.788717,151.915088 356.032104,151.943363 356.269411,152 L356.725924,150.961391 L358.461084,147.020293 C359.896171,143.747607 358.366641,139.949954 355.042276,138.531773 L355.042276,138.531773 Z" id="Path" fill="#48A12A"></path>
                <circle id="Oval" fill="#FFB8B8" cx="366.5" cy="115.5" r="13.5"></circle>
                <path d="M380.039326,155.078652 L372.162921,155.292135 L371.589888,160.825843 L371.460674,162.106742 L359.123596,167.646067 L358,168.151685 L358,178 L359.123596,177.679775 L362.674062,176.668539 L362.691067,176.668539 L378.331427,172.213483 L378.511107,172.162921 C381.106277,171.413523 382.90172,169.049401 382.927034,166.348315 L382.966258,159.814607 L383,155 L380.039326,155.078652 Z" id="Path" fill="#FFB8B8"></path>
                <path d="M383.121402,144.000303 C382.8991,140.476799 379.784375,137.795847 376.164469,138.012229 C372.544563,138.228612 369.790261,141.260389 370.012564,144.783893 L370.88598,158.655106 C370.933797,159.394161 371.316652,160.074285 371.930851,160.51127 C372.413528,160.861525 373.008618,161.032937 373.609387,160.994761 L379.730016,160.627974 L381.585579,160.516827 C382.268549,160.484121 382.908056,160.180924 383.355557,159.677663 C383.404639,159.624863 383.45035,159.569185 383.492435,159.510942 C383.855383,159.038137 384.033478,158.45497 383.994802,157.865958 L383.121402,144.000303 Z" id="Path" fill="#48A12A"></path>
                <path d="M360.396134,181.937513 L359.680672,181.937513 L359.680672,181.864388 C359.314533,181.915013 358.942981,181.965638 358.571429,182.021888 L358.571429,183.06251 L363.695996,183.06251 C362.620048,182.668758 361.520094,182.293759 360.396134,181.937513 Z M360.396134,181.937513 L359.680672,181.937513 L359.680672,181.864388 C359.314533,181.915013 358.942981,181.965638 358.571429,182.021888 L358.571429,183.06251 L363.695996,183.06251 C362.620048,182.668758 361.520094,182.293759 360.396134,181.937513 Z M365.504202,181.937513 L359.680672,181.937513 L359.680672,155.218833 C359.676513,153.339794 358.449207,151.689367 356.668981,151.168843 C356.296723,151.055028 355.90981,150.998152 355.521008,151.000046 L306.159664,151.000046 C303.863493,151.002902 302.002769,152.890052 302,155.218833 L302,182.781261 C302.000808,185.110867 303.86268,186.99918 306.159664,187 L365.504202,187 C366.776225,186.997818 367.843551,186.026672 367.983212,184.744381 C367.994505,184.652954 368,184.560898 368,184.468757 C367.99792,183.071655 366.881717,181.93961 365.504179,181.937513 L365.504202,181.937513 Z M366.890756,184.468757 C366.890756,185.245276 366.269848,185.875003 365.504202,185.875003 L306.159664,185.875003 C304.475374,185.873998 303.110235,184.489471 303.109244,182.781261 L303.109244,155.218833 C303.110247,153.510628 304.475379,152.126109 306.159664,152.125078 L355.521008,152.125078 C355.758289,152.124389 355.994787,152.152719 356.225378,152.209466 C357.599002,152.542408 358.568852,153.786471 358.571429,155.218833 L358.571429,183.06251 L365.504202,183.06251 C366.201076,183.063442 366.789397,183.58794 366.879664,184.288757 C366.885049,184.350621 366.890756,184.406887 366.890756,184.468757 L366.890756,184.468757 Z M360.396134,181.937513 L359.680672,181.937513 L359.680672,181.864388 C359.314533,181.915013 358.942981,181.965638 358.571429,182.021888 L358.571429,183.06251 L363.695996,183.06251 C362.620048,182.668758 361.520094,182.293759 360.396134,181.937513 Z" id="Shape" fill="#2A2928"></path>
                <circle id="Oval" fill="#48A12A" cx="330.5" cy="168.5" r="3.5"></circle>
                <path d="M363.651132,110.317243 C360.458115,113.163437 356.176965,116.218396 352.267083,114.133162 C349.699788,112.763963 348.556798,109.761356 349.156393,106.919032 C350.234641,101.807706 354.663067,99.0459595 358.950827,96.8134544 C364.524906,93.9112001 370.676025,91.3802333 376.917726,92.1347427 C383.159428,92.8892522 389.25776,98.0354883 388.963017,104.302093 C388.725997,109.34157 384.601756,114.042856 385.907302,118.916794 C387.221233,123.822025 393.188274,125.721509 398.270738,125.971043 C403.353202,126.220577 408.948125,125.788192 412.979918,128.885964 C418.123217,132.837755 418.04085,141.101086 414.379411,146.449597 C410.717973,151.798108 404.534957,154.807725 398.461935,157.095597 C390.415543,160.126882 381.571352,162.317071 373.265641,160.088481 C364.95993,157.859891 357.688709,149.909006 358.906934,141.413683 C359.421509,137.825271 361.31357,134.604059 363.139462,131.470181 C364.965353,128.336304 366.801947,125.068604 367.185365,121.46389 C367.504875,118.459959 366.548588,115.143962 364.328174,113.208942 C363.503604,112.51761 363.219611,111.374755 363.624982,110.379133 L363.651132,110.317243 Z" id="Path" fill="#2A2928"></path>
                <path d="M0,197.944444 L0,199.055556 C0.00333543473,202.889486 3.11592254,205.99667 6.95652003,206 L57.0434643,206 C60.8848576,205.998587 63.9985684,202.890281 64,199.055556 L64,197.944444 C64.0034518,196.319362 63.4317805,194.745287 62.3858546,193.5 C62.0377891,193.086514 61.6438765,192.713762 61.2116664,192.388889 C61.2116664,192.388889 33.6749775,191.766667 33.6749775,191 L6.95652003,191 C3.11674401,191.005306 0.0053154845,194.111334 0,197.944444 L0,197.944444 Z" id="Path" fill="#1C4637"></path>
                <rect id="Rectangle" fill="#1C4637" transform="translate(31.500000, 228.500000) rotate(-180.000000) translate(-31.500000, -228.500000) " x="28" y="205" width="7" height="47"></rect>
                <path d="M7,251.578021 C7,252.314638 17.9690231,251.862941 31.5,251.862941 C45.0309769,251.862941 56,252.314638 56,251.578021 C56,250.841403 45.0309769,245 31.5,245 C17.9690231,245 7,250.841398 7,251.578021 Z" id="Path" fill="#1C4637"></path>
                <polygon id="Path" fill="#A0616A" points="68.0011053 246 74.7768321 246 78 220 68 220.00055"></polygon>
                <path d="M66.8440023,244.291205 L88.3580485,244.291205 L88.3580485,252.603457 L75.1562535,252.603457 C70.565524,252.603457 66.8440023,248.881935 66.8440023,244.291205 L66.8440023,244.291205 L66.8440023,244.291205 Z" id="Path" fill="#2A2928" transform="translate(77.601025, 248.447331) rotate(179.997380) translate(-77.601025, -248.447331) "></path>
                <polygon id="Path" fill="#A0616A" points="78.6665377 242 85 239.966044 80.3477723 214 71 217.0019"></polygon>
                <path d="M77.7622257,237.588394 L99.2762774,237.588394 L99.2762774,245.90064 L86.0744713,245.90064 C81.4837448,245.90064 77.7622257,242.17912 77.7622257,237.588394 L77.7622257,237.588394 L77.7622257,237.588394 Z" id="Path" fill="#2A2928" transform="translate(88.519252, 241.744517) rotate(162.577380) translate(-88.519252, -241.744517) "></path>
                <path d="M74.137,230.388164 L61.6556423,197.638708 C58.8554901,198.296044 35.3728597,203.490087 27.507864,195.119645 C24.8124609,192.250725 24.2867781,188.094304 25.945352,182.765538 L30.535329,177 L30.6779888,177.007604 C32.4134633,177.09887 73.2161841,179.38488 76.0132143,191.687381 C78.3715187,202.059163 82.6784747,221.396245 83.9422049,227.075952 C84.2070018,228.292233 83.5407889,229.51893 82.3761423,229.959542 L77.3566778,231.840823 C77.0770155,231.946067 76.7806453,232 76.4818198,232 C75.441726,232 74.509325,231.358924 74.137,230.388164 L74.137,230.388164 Z" id="Path" fill="#2A2928"></path>
                <path d="M67.137,234.388164 L54.6556423,201.638708 C51.855351,202.296044 28.3728597,207.489542 20.507864,199.119645 C17.8124609,196.250725 17.2867781,192.094304 18.945352,186.765538 L23.535329,181 L23.6779888,181.007604 C25.4134633,181.09887 66.2161841,183.38488 69.0132143,195.687381 C71.3715187,206.059163 75.6784747,225.396245 76.9422049,231.075952 C77.2070018,232.292233 76.5407889,233.51893 75.3761423,233.959542 L70.3566778,235.840823 C70.0770155,235.946067 69.7806453,236 69.4818198,236 C68.441726,236 67.509325,235.358924 67.137,234.388164 L67.137,234.388164 Z" id="Path" fill="#2A2928"></path>
                <path d="M56.136104,171 C52.3734645,170.998562 48.8890701,168.96825 46.9633312,165.655143 L43,158.773634 L52.4202922,153.496446 L56.4202377,159.11758 L83.5602046,156.186862 C83.6923096,155.941985 83.8409056,155.706842 84.0049126,155.483143 L84.0049126,155.483143 C85.0581627,154.062613 86.651025,153.168073 88.3859974,153.022756 C90.1293263,152.869484 91.8522348,153.495809 93.1117296,154.740692 C95.1665849,156.760526 95.5951871,159.964106 94.1466679,162.476322 C93.2563332,164.014038 91.7682903,165.089473 90.0561277,165.432626 C88.3439651,165.775779 86.5702868,165.354062 85.180393,164.273351 C85.0211179,164.148457 84.8682836,164.015163 84.7225084,163.874009 L58.7282463,170.666963 C57.8811301,170.888335 57.0103209,171.000215 56.136104,171 Z" id="Path" fill="#A0616A"></path>
                <path d="M33,136 C34.197752,136 31.8590723,129.844018 32.9647555,129.551258 C38.7418013,128.021629 43,122.758092 43,116.5 C43,109.044156 36.9558441,103 29.5,103 C22.0441559,103 16,109.044156 16,116.5 C16,121.74499 18.9911028,126.29137 23.3605998,128.526433 C23.5711361,128.634125 21.7832439,137.90322 22,138 C23.6794748,138.749873 31.0418662,136 33,136 Z" id="Oval" fill="#A0616A"></path>
                <path d="M19.1980789,187.525046 C18.4346588,186.976316 18.0448127,186.046467 18.1893252,185.118996 C19.732725,174.970142 17.956939,160.431714 16.1953752,150.022421 C15.4641527,145.739628 16.8098407,141.364469 19.8231617,138.227605 C22.8364828,135.090741 27.1612678,133.562943 31.4821769,134.108876 C33.3360572,134.353155 35.172572,134.714271 36.9807002,135.190058 L36.9807002,135.190058 C43.1669146,136.744008 47.4477132,142.366528 47.2878937,148.727813 C47.0245006,158.772389 49.0692266,171.305139 49.9605753,176.226927 C50.0835366,176.910377 49.9160041,177.614051 49.4981106,178.169381 C49.0881967,178.71913 48.4646817,179.070742 47.7810992,179.137637 C37.9031724,180.143179 27.2509081,184.948279 21.7804186,187.722802 C21.4288373,187.903752 21.0391757,187.998761 20.6435544,188 C20.123474,187.998296 19.6173541,187.831995 19.1980789,187.525046 Z" id="Path" fill="#C5C3BF"></path>
                <path d="M45.4290173,161.824547 C44.8106263,161.583899 44.3151335,161.108127 44.0530114,160.503309 L38.5284725,147.85978 C37.6184186,145.781492 37.897342,143.380001 39.2600728,141.560804 C40.6228036,139.741606 42.8620705,138.781402 45.1335437,139.042243 C47.4050168,139.303084 49.3632052,140.745295 50.2697613,142.825082 L55.7944337,155.468611 C56.3416212,156.725511 55.7588986,158.184058 54.4916496,158.729464 L47.3447496,161.794412 C46.7358999,162.057665 46.0460196,162.068519 45.4290395,161.824552 L45.4290173,161.824547 Z" id="Path" fill="#C5C3BF"></path>
                <path d="M21.543284,128.239723 C21.155779,128.689332 20.603796,128.96225 20.0129503,128.996371 C19.4221046,129.030491 18.8426561,128.82291 18.4064703,128.420868 C15.3873444,125.964409 12.99283,122.821369 11.4206242,119.251245 C9.66038648,115.034015 9.40242526,109.887566 11.4057399,105.934612 C13.099241,102.592978 16.1392848,100.465856 19.1742073,98.7273445 C20.337659,97.9904923 21.6126508,97.4488439 22.9491986,97.1236336 C24.3143253,96.8121983 25.7468194,97.0953298 26.8929832,97.9031202 C28.1185563,98.839885 28.7289512,100.38057 28.4795379,101.90771 C29.8677627,100.069522 31.7393032,98.6577138 33.8831292,97.8314755 C35.1985157,97.26244 36.6681478,97.1635013 38.0472839,97.5511358 C39.9963206,98.2050197 41.4389883,100.183239 42.2417971,102.308643 C42.8910375,103.935846 43.1288285,105.699443 42.9338944,107.441639 C42.7621047,109.122837 41.9113351,110.659481 40.5804682,111.692353 C38.9906776,112.794938 36.9424895,112.682955 35.0936076,112.194963 C33.2447256,111.70697 31.4503312,110.879581 29.5691889,110.6489 C27.6880467,110.418218 25.6032322,110.918357 24.4824455,112.604811 C23.6931593,113.792451 23.5070837,115.356937 23.3460357,116.848233 L22.5083977,124.604827 C22.449224,125.714569 22.2113645,126.807317 21.8040843,127.840507 C21.7351665,127.984625 21.6474623,128.118877 21.543284,128.239723 L21.543284,128.239723 Z" id="Path" fill="#4A1F10"></path>
                <path d="M71.5588096,213 L49.3838077,213 C48.6556338,213.002275 47.9671065,212.672274 47.5177883,212.105633 C47.058541,211.531267 46.8929181,210.779522 47.0689272,210.068299 C49.1431468,201.476817 49.1430896,192.523157 47.0687604,183.931701 C46.8928931,183.220451 47.0585689,182.468745 47.5177883,181.894367 C47.9671065,181.327726 48.6556338,180.997725 49.3838077,181 L71.5588096,181 C72.7289443,181.002341 73.7257421,181.841151 73.9152621,182.982977 C75.3615793,192.272936 75.3615793,201.727064 73.9152621,211.017023 C73.7257421,212.158849 72.7289443,212.997659 71.5588096,213 L71.5588096,213 Z" id="Path" fill="#C5C3BF"></path>
                <path d="M54,192.326799 L54,191.673201 C54.0010071,190.749536 54.7487276,190.001008 55.6713973,190 L67.3286027,190 C68.2512724,190.001008 68.9989929,190.749536 69,191.673201 L69,192.326799 C68.9989929,193.250464 68.2512724,193.998992 67.3286027,194 L55.6713973,194 C54.7487276,193.998992 54.0010071,193.250464 54,192.326799 Z" id="Path" fill="#FFFFFF"></path>
                <path d="M54,199.326911 L54,198.673089 C54.0010071,197.749486 54.7487276,197.001008 55.6713973,197 L67.3286027,197 C68.2512724,197.001008 68.9989929,197.749486 69,198.673089 L69,199.326911 C68.9989929,200.250514 68.2512724,200.998992 67.3286027,201 L55.6713973,201 C54.7487276,200.998992 54.0010071,200.250514 54,199.326911 Z" id="Path" fill="#FFFFFF"></path>
                <path d="M61.5363745,172.077989 C61.0607132,171.485556 60.8891205,170.710244 61.0713078,169.976665 C63.2197756,161.116721 63.2197173,151.88322 61.0711378,143.023302 C60.8891021,142.289692 61.0607572,141.514419 61.5363972,140.921978 C62.001899,140.33784 62.7149593,139.997678 63.4690541,140 L86.4357885,140 C87.6477725,140.002251 88.6802606,140.867353 88.8763943,142.044947 C90.3745352,151.625202 90.3745352,161.374798 88.8763943,170.955053 C88.6802606,172.132647 87.6477725,172.997749 86.4357885,173 L63.4690315,173 C62.7149309,173.002314 62.0018695,172.662139 61.5363745,172.077989 L61.5363745,172.077989 Z" id="Path" fill="#48A12A"></path>
                <path d="M81.3546178,152 L69.6453767,152 C68.7370712,151.999006 68.0009915,151.26098 68,150.350273 L68,149.649727 C68.0009915,148.73902 68.7370712,148.000994 69.6453767,148 L81.3546233,148 C82.2629288,148.000994 82.9990085,148.73902 83,149.649727 L83,150.350273 C82.9990085,151.260982 82.2629254,151.999009 81.3546178,152 L81.3546178,152 Z" id="Path" fill="#FFFFFF"></path>
                <path d="M81.3546178,160 L69.6453767,160 C68.7370712,159.999006 68.0009915,159.260987 68,158.350289 L68,157.649711 C68.0009915,156.739013 68.7370712,156.000994 69.6453767,156 L81.3546233,156 C82.2629288,156.000994 82.9990085,156.739013 83,157.649711 L83,158.350289 C82.9990085,159.260989 82.2629254,159.999009 81.3546178,160 L81.3546178,160 Z" id="Path" fill="#FFFFFF"></path>
                <path d="M50.7630642,184.648938 C49.1035111,184.067424 47.7686787,182.805874 47.0915291,181.178971 C47.0142514,180.991251 46.9468908,180.799577 46.8897274,180.604748 L17.4890363,172.212268 C14.8946894,171.460993 13.0991002,169.091835 13.0717457,166.383954 L13,155 L23.8370952,155.290836 L24.543331,162.128694 L49.6839506,173.447963 C49.9206403,173.306127 50.1668938,173.180996 50.4209233,173.073478 L50.4210582,173.073478 C52.9676763,172.002693 55.9135668,172.754043 57.6406375,174.914833 C59.3677082,177.075623 59.4577334,180.122598 57.861265,182.382144 C56.2647966,184.64169 53.3684335,185.566636 50.7630642,184.648938 Z" id="Path" fill="#A0616A"></path>
                <path d="M12.6446307,160.678862 C12.1916507,160.182921 11.9614277,159.531233 12.0052914,158.869096 L12.8810673,145.00701 C13.0213011,142.726116 14.4027607,140.691771 16.5040366,139.671806 C18.6053125,138.651842 21.1064187,138.801579 23.0633529,140.064502 C25.020287,141.327425 26.1350439,143.511214 25.9868764,145.791633 L25.1112661,159.653775 C25.0223603,161.030906 23.8049161,162.078293 22.3894472,161.9954 L14.4117911,161.518106 C13.7311607,161.479374 13.0947822,161.177148 12.6446478,160.678862 L12.6446307,160.678862 Z" id="Path" fill="#C5C3BF"></path>
                <path d="M138.96,86 L93.04,86 C90.2578038,85.9968141 88.0031817,83.7391817 88,80.953271 L88,31.046729 C88.0031786,28.260817 90.2578026,26.0031829 93.04,26 L138.96,26 C141.742196,26.0031859 143.996818,28.2608183 144,31.046729 L144,80.953271 C143.996815,83.7391805 141.742195,85.996811 138.96,86 L138.96,86 Z M93.04,27.1214953 C90.8760481,27.1239212 89.1224226,28.8798879 89.12,31.046729 L89.12,80.953271 C89.1224257,83.1201108 90.8760493,84.8760757 93.04,84.8785047 L138.96,84.8785047 C141.123949,84.8760726 142.877571,83.1201095 142.88,80.953271 L142.88,31.046729 C142.877574,28.8798892 141.123951,27.1239243 138.96,27.1214953 L93.04,27.1214953 Z" id="Shape" fill="#2A2928"></path>
                <path d="M222.96,86 L177.04,86 C174.257804,85.9968141 172.003182,83.7391817 172,80.953271 L172,31.046729 C172.003179,28.260817 174.257803,26.0031829 177.04,26 L222.96,26 C225.742196,26.0031859 227.996818,28.2608183 228,31.046729 L228,80.953271 C227.996815,83.7391805 225.742195,85.996811 222.96,86 Z M177.04,27.1214953 C174.876048,27.1239212 173.122423,28.8798879 173.12,31.046729 L173.12,80.953271 C173.122426,83.1201108 174.876049,84.8760757 177.04,84.8785047 L222.96,84.8785047 C225.123949,84.8760726 226.877571,83.1201095 226.88,80.953271 L226.88,31.046729 C226.877574,28.8798892 225.123951,27.1239243 222.96,27.1214953 L177.04,27.1214953 Z" id="Shape" fill="#2A2928"></path>
                <path d="M102.617647,46 L98.3823529,46 C97.0672205,45.9985412 96.0014588,44.9327795 96,43.6176471 L96,39.3823529 C96.0014588,38.0672205 97.0672205,37.0014588 98.3823529,37 L102.617647,37 C103.93278,37.0014588 104.998541,38.0672205 105,39.3823529 L105,43.6176471 C104.998541,44.9327795 103.93278,45.9985412 102.617647,46 Z" id="Path" fill="#48A12A"></path>
                <path d="M102.617647,60 L98.3823529,60 C97.0672205,59.9985412 96.0014588,58.9327795 96,57.6176471 L96,53.3823529 C96.0014588,52.0672205 97.0672205,51.0014588 98.3823529,51 L102.617647,51 C103.93278,51.0014588 104.998541,52.0672205 105,53.3823529 L105,57.6176471 C104.998541,58.9327795 103.93278,59.9985412 102.617647,60 Z" id="Path" fill="#C5C3BF"></path>
                <path d="M135.33907,44 L114.660924,44 C113.744036,43.9990059 113.001001,43.2609799 113,42.3502728 L113,41.6497272 C113.001001,40.7390201 113.744036,40.0009941 114.660924,40 L135.339076,40 C136.255964,40.0009941 136.998999,40.7390201 137,41.6497272 L137,42.3502728 C136.998999,43.2609821 136.255961,43.999009 135.33907,44 Z" id="Path" fill="#48A12A"></path>
                <path d="M186.617647,45 L182.382353,45 C181.06722,44.9985412 180.001459,43.9327795 180,42.6176471 L180,38.3823529 C180.001459,37.0672205 181.06722,36.0014588 182.382353,36 L186.617647,36 C187.93278,36.0014588 188.998541,37.0672205 189,38.3823529 L189,42.6176471 C188.998541,43.9327795 187.93278,44.9985412 186.617647,45 L186.617647,45 Z" id="Path" fill="#C5C3BF"></path>
                <path d="M219.339076,43 L198.660924,43 C197.744036,42.9990059 197.001001,42.2609799 197,41.3502728 L197,40.6497272 C197.001004,39.7390213 197.744037,39.0009971 198.660924,39 L219.339076,39 C220.255963,39.0009971 220.998996,39.7390213 221,40.6497272 L221,41.3502728 C220.998999,42.2609799 220.255964,42.9990059 219.339076,43 Z" id="Path" fill="#C5C3BF"></path>
                <path d="M219.32779,56 L180.67221,56 C179.749092,55.9990059 179.001008,55.2609799 179,54.3502728 L179,53.6497272 C179.001011,52.7390213 179.749093,52.0009971 180.67221,52 L219.32779,52 C220.250907,52.0009971 220.998989,52.7390213 221,53.6497272 L221,54.3502728 C220.998992,55.2609799 220.250908,55.9990059 219.32779,56 Z" id="Path" fill="#48A12A"></path>
                <path d="M219.32779,66 L180.67221,66 C179.749092,65.9990059 179.001008,65.2609799 179,64.3502728 L179,63.6497272 C179.001011,62.7390213 179.749093,62.0009971 180.67221,62 L219.32779,62 C220.250907,62.0009971 220.998989,62.7390213 221,63.6497272 L221,64.3502728 C220.998992,65.2609799 220.250908,65.9990059 219.32779,66 Z" id="Path" fill="#C5C3BF"></path>
                <path d="M219.32779,75 L180.67221,75 C179.749092,74.9990059 179.001008,74.2609799 179,73.3502728 L179,72.6497272 C179.001011,71.7390213 179.749093,71.0009971 180.67221,71 L219.32779,71 C220.250907,71.0009971 220.998989,71.7390213 221,72.6497272 L221,73.3502728 C220.998992,74.2609799 220.250908,74.9990059 219.32779,75 Z" id="Path" fill="#C5C3BF"></path>
                <path d="M306.96,86 L261.04,86 C258.257804,85.9968141 256.003182,83.7391817 256,80.953271 L256,31.046729 C256.003179,28.260817 258.257803,26.0031829 261.04,26 L306.96,26 C309.742196,26.0031859 311.996818,28.2608183 312,31.046729 L312,80.953271 C311.996815,83.7391805 309.742195,85.996811 306.96,86 Z M261.04,27.1214953 C258.876048,27.1239212 257.122423,28.8798879 257.12,31.046729 L257.12,80.953271 C257.122426,83.1201108 258.876049,84.8760757 261.04,84.8785047 L306.96,84.8785047 C309.123949,84.8760726 310.877571,83.1201095 310.88,80.953271 L310.88,31.046729 C310.877574,28.8798892 309.123951,27.1239243 306.96,27.1214953 L261.04,27.1214953 Z" id="Shape" fill="#2A2928"></path>
                <path d="M303.339076,43 L282.660924,43 C281.744036,42.9990059 281.001001,42.2609799 281,41.3502728 L281,40.6497272 C281.001004,39.7390213 281.744037,39.0009971 282.660924,39 L303.339076,39 C304.255963,39.0009971 304.998996,39.7390213 305,40.6497272 L305,41.3502728 C304.998999,42.2609799 304.255964,42.9990059 303.339076,43 Z" id="Path" fill="#C5C3BF"></path>
                <path d="M303.32779,56 L264.67221,56 C263.749092,55.9990059 263.001008,55.2609799 263,54.3502728 L263,53.6497272 C263.001011,52.7390213 263.749093,52.0009971 264.67221,52 L303.32779,52 C304.250907,52.0009971 304.998989,52.7390213 305,53.6497272 L305,54.3502728 C304.998992,55.2609799 304.250908,55.9990059 303.32779,56 Z" id="Path" fill="#C5C3BF"></path>
                <path d="M303.32779,66 L264.67221,66 C263.749092,65.9990059 263.001008,65.2609799 263,64.3502728 L263,63.6497272 C263.001011,62.7390213 263.749093,62.0009971 264.67221,62 L303.32779,62 C304.250907,62.0009971 304.998989,62.7390213 305,63.6497272 L305,64.3502728 C304.998992,65.2609799 304.250908,65.9990059 303.32779,66 Z" id="Path" fill="#C5C3BF"></path>
                <path d="M303.32779,75 L264.67221,75 C263.749092,74.9990059 263.001008,74.2609799 263,73.3502728 L263,72.6497272 C263.001011,71.7390213 263.749093,71.0009971 264.67221,71 L303.32779,71 C304.250907,71.0009971 304.998989,71.7390213 305,72.6497272 L305,73.3502728 C304.998992,74.2609799 304.250908,74.9990059 303.32779,75 Z" id="Path" fill="#C5C3BF"></path>
                <path d="M135.33907,58 L114.660924,58 C113.744036,57.9990059 113.001001,57.2609799 113,56.3502728 L113,55.6497272 C113.001001,54.7390201 113.744036,54.0009941 114.660924,54 L135.339076,54 C136.255964,54.0009941 136.998999,54.7390201 137,55.6497272 L137,56.3502728 C136.998999,57.2609821 136.255961,57.999009 135.33907,58 Z" id="Path" fill="#C5C3BF"></path>
                <path d="M102.617647,74 L98.3823529,74 C97.0672205,73.9985412 96.0014588,72.9327795 96,71.6176471 L96,67.3823529 C96.0014588,66.0672205 97.0672205,65.0014588 98.3823529,65 L102.617647,65 C103.93278,65.0014588 104.998541,66.0672205 105,67.3823529 L105,71.6176471 C104.998541,72.9327795 103.93278,73.9985412 102.617647,74 Z" id="Path" fill="#C5C3BF"></path>
                <path d="M135.33907,72 L114.660924,72 C113.744036,71.9990059 113.001001,71.2609799 113,70.3502728 L113,69.6497272 C113.001001,68.7390201 113.744036,68.0009941 114.660924,68 L135.339076,68 C136.255964,68.0009941 136.998999,68.7390201 137,69.6497272 L137,70.3502728 C136.998999,71.2609821 136.255961,71.999009 135.33907,72 L135.33907,72 Z" id="Path" fill="#C5C3BF"></path>
                <path d="M272.9981,40 C272.9981,39.9872801 273,39.9749958 273,39.9622428 C273,38.6461693 272.473237,37.3839941 271.535552,36.4533895 C270.597866,35.522785 269.326087,35 268,35 L268,40 L272.9981,40 Z" id="Path" fill="#48A12A"></path>
                <path d="M268.001828,41.038044 L268.001828,36 C265.245087,35.9990326 263.007657,38.2294575 263,40.9861474 C262.992382,43.7428374 265.21742,45.9856248 267.974124,46 C270.730827,46.0142376 272.979024,43.7946647 273,41.038044 L268.001828,41.038044 Z" id="Path" fill="#C5C3BF"></path>
            </g>
        </g>
    </g>
</svg>