<?xml version="1.0" encoding="UTF-8"?>
<svg width="140px" height="278px" viewBox="0 0 140 278" version="1.1" xmlns="http://www.w3.org/2000/svg" xmlns:xlink="http://www.w3.org/1999/xlink">
    <title>Group 5</title>
    <g id="Page-2---Illustration-(Sep--21)" stroke="none" stroke-width="1" fill="none" fill-rule="evenodd">
        <g id="Business-Home" transform="translate(-1077.000000, -2537.000000)" fill="#1C4637" fill-rule="nonzero">
            <g id="Group-5" transform="translate(1077.000000, 2537.000000)">
                <circle id="Oval" cx="72.5" cy="253.5" r="24.5"></circle>
                <path d="M69.4942221,0 C31.5850943,0.270214736 0.545515391,31.1461144 0.00700765102,69.13793 C0.00201931996,69.4886884 0,71.9550746 0,75.1808851 C0,85.0300479 7.96643712,93.0144162 17.7934294,93.0155573 L17.7934663,93.0155573 C22.5180137,93.01452 27.0484764,91.1316829 30.3874252,87.7815723 C33.7263739,84.4314618 35.6000616,79.8887401 35.5959762,75.1535354 C35.5941675,72.9591562 35.5930707,71.4403974 35.5930707,71.3471547 C35.5897061,55.1275793 47.0744786,41.1887767 62.9662105,38.1250081 C78.8579424,35.0612396 94.6825993,43.7350546 100.683157,58.7984305 C106.683714,73.8618064 101.170822,91.0739177 87.54357,99.8222758 L87.5497448,99.829791 C87.5497448,99.829791 62.2240407,116.170697 54.5029004,138.587383 L54.5094654,138.588969 C53.1517797,143.181229 52.4638114,147.946132 52.4669179,152.735755 C52.4669179,154.704608 52.5824826,171.931508 52.8057711,185.913588 C52.9682139,195.951218 61.1345016,204.002359 71.1508542,204 L71.1508912,204 C76.0366148,204 80.7204998,202.046646 84.1644833,198.573388 C87.6084667,195.100129 89.5281022,190.393637 89.4979517,185.496984 C89.4204059,172.691958 89.3784585,157.781694 89.3784585,156.699485 C89.3784585,142.934914 102.627197,129.220396 113.509995,120.276815 C126.041922,109.978019 135.059965,95.9432584 138.682116,80.1114961 C139.48362,76.8520317 139.925563,73.5142072 140,70.1580409 C140,51.4631449 132.555426,33.5414066 119.318342,20.3699521 C106.081257,7.19849749 88.1465492,-0.133217881 69.4942221,0 Z" id="Path"></path>
            </g>
        </g>
    </g>
</svg>