<?xml version="1.0" encoding="UTF-8"?>
<svg width="228px" height="223px" viewBox="0 0 228 223" version="1.1" xmlns="http://www.w3.org/2000/svg" xmlns:xlink="http://www.w3.org/1999/xlink">
    <title>undraw_Active_options_re_8rj3</title>
    <g id="Page-2---Illustration-(Sep--21)" stroke="none" stroke-width="1" fill="none" fill-rule="evenodd">
        <g id="Business-Home" transform="translate(-1046.000000, -1703.000000)" fill-rule="nonzero">
            <g id="Climate-advisory" transform="translate(0.000000, 1573.000000)">
                <g id="undraw_Active_options_re_8rj3" transform="translate(1046.000000, 130.000000)">
                    <g id="a319387a-1074-4617-a9d7-8c11a1aba957">
                        <path d="M184.14107,28.9822867 L37.6186957,19.8345948 C35.9213473,19.7227533 34.2809523,19.3828572 32.8065676,18.8375035 C31.2854255,18.2756587 29.9370937,17.5436688 28.8267941,16.6769419 C26.4399151,14.8242291 25.1304626,12.5065145 25.1184487,10.1132502 C25.1184487,9.53032599 25.1987211,8.94851552 25.3625837,8.37494426 C25.5194755,7.82553513 25.7593138,7.28698581 26.0787814,6.76674518 C26.3879941,6.26337721 26.7776317,5.78143789 27.2415933,5.32847347 C27.6980107,4.88343132 28.2288724,4.47100286 28.8249307,4.09837268 C29.404745,3.73537875 30.047382,3.41517336 30.7405887,3.14386177 C32.090026,2.615809 33.6155302,2.29566327 35.1949285,2.20906402 C36.0022407,2.16512348 36.8147499,2.17834697 37.6174533,2.24849032 L184.14107,14.8286366 C185.259465,14.9340662 186.318456,15.2155913 187.221403,15.647521 C188.210384,16.1185528 189.055918,16.6999867 189.716604,17.3633539 C190.452852,18.094036 191.016238,18.8893207 191.388767,19.7238069 C191.794983,20.6225477 192,21.5529919 192,22.4879853 C192,22.9435749 191.951039,23.3986347 191.85091,23.84977 C191.755711,24.2796563 191.609108,24.7043209 191.412371,25.1200856 C191.225395,25.5158943 190.986232,25.9010047 190.697416,26.2713338 C190.421788,26.6250176 190.093788,26.9612609 189.717846,27.2755219 C189.366562,27.5700803 188.965603,27.8393842 188.522113,28.0786358 C188.110742,28.3002612 187.657291,28.4883404 187.172332,28.6384893 C186.231732,28.9297868 185.181731,29.0487142 184.140449,28.9818925 L184.14107,28.9822867 Z" id="a64f6941-3d46-45f6-b9a5-e3f4c7441463" fill="#E0DFDC"></path>
                        <path d="M119.016144,24.9166419 L37.6186894,19.8345909 C35.921341,19.7227494 34.2809461,19.3828533 32.8065614,18.8374996 C31.2854193,18.2756548 29.9370875,17.5436649 28.8267879,16.6769379 C26.4399089,14.8242252 25.1304564,12.5065106 25.1184425,10.1132462 C25.1170093,9.53032205 25.1987148,8.94851158 25.3625775,8.37494032 C25.5194692,7.82553118 25.7593076,7.28698187 26.0787752,6.76674123 C26.3879879,6.26337327 26.7776255,5.78143395 27.2415871,5.32846953 C27.6980045,4.88342738 28.2288662,4.47099892 28.8249245,4.09836873 C29.4047388,3.7353748 30.0473758,3.41516942 30.7405825,3.14385783 C32.0900198,2.61580505 33.615524,2.29565932 35.1949223,2.20906007 C36.0022345,2.16511954 36.8147436,2.17834303 37.6174471,2.24848638 L119.01428,9.23837646 L119.016144,24.9166419 Z" id="f573f903-41a4-475b-90ae-b1e8d0598757" fill="#48A12A"></path>
                        <path d="M118.808055,26.0714385 C118.431611,26.0465086 118.069783,25.9654522 117.752083,25.8348806 C117.417026,25.6976941 117.125087,25.5221539 116.891154,25.3172132 C116.636656,25.0957688 116.439541,24.849935 116.307264,24.5890093 C116.16491,24.3111888 116.092381,24.0208714 116.092342,23.7287273 L116.092342,9.99023614 C116.089565,9.70854926 116.162025,9.42860091 116.306643,9.16228368 C116.434298,8.92672074 116.63281,8.70913407 116.891154,8.52160618 C117.126319,8.34906466 117.422072,8.21401362 117.754567,8.12734311 C118.08967,8.04298153 118.453739,8.0157954 118.81054,8.04849049 C119.187515,8.08385635 119.546662,8.17369087 119.8603,8.3110697 C120.193334,8.45731736 120.482392,8.64025425 120.713774,8.85121012 C120.96456,9.0766711 121.158996,9.3253581 121.290211,9.58848207 C121.429929,9.86596008 121.501169,10.155488 121.501405,10.4467928 L121.501405,24.074496 C121.503983,24.3560117 121.432606,24.6358308 121.290211,24.9024485 C121.163853,25.140505 120.968334,25.3614248 120.713774,25.5537711 C120.48094,25.7302423 120.188349,25.8710773 119.857816,25.965776 C119.528085,26.0578216 119.166474,26.0942192 118.808055,26.0714385 Z" id="b9dc6a73-2ff5-489e-a572-426ec7a03266" fill="#2A2928"></path>
                        <path d="M2.11406132,14.7943317 C2.02289503,14.7849047 1.93246938,14.7692295 1.84341029,14.7474144 C1.75221999,14.7250024 1.66259025,14.6965539 1.57510256,14.6622536 C1.48513711,14.6270298 1.39747764,14.5860755 1.31265308,14.5396378 C1.22486973,14.4915739 1.14009123,14.4381165 1.05879569,14.379567 C0.567214627,14.0259593 0.217261403,13.506388 0.0722668235,12.9148796 C0.0241823174,12.7181503 0,12.5162579 0,12.3136285 L0,1.9973408 C-0.000694317901,1.80065018 0.0235876693,1.60467985 0.0722668235,1.41422571 C0.118032502,1.23442316 0.188354604,1.06192237 0.281210981,0.901683712 C0.463350617,0.588638127 0.734366526,0.337982202 1.05918624,0.182153598 C1.22240195,0.103334114 1.39624703,0.0492632056 1.57510256,0.0216885263 C1.75363485,-0.00554717582 1.93508686,-0.00714002107 2.11406132,0.0169573694 C2.29896974,0.0420069976 2.47979386,0.0915866728 2.65184844,0.16441176 C2.83395309,0.241517756 3.00603133,0.340820914 3.16424981,0.460109067 L11.3259601,6.58104332 C11.471836,6.69061115 11.6054156,6.81594205 11.7243209,6.95480472 C11.9598938,7.2297372 12.1344714,7.55236867 12.2363318,7.9010361 C12.2873769,8.07587539 12.31946,8.25579446 12.3320165,8.43762815 C12.3320185,8.45212828 12.3329316,8.46661367 12.3347503,8.48099709 C12.3365703,8.49539503 12.3365703,8.50996809 12.3347503,8.52436603 L12.3347503,8.61149817 C12.3353937,8.80354813 12.3123032,8.9949291 12.2660135,9.18120831 C12.2222583,9.35678125 12.1552617,9.52559983 12.0668331,9.68310521 C11.9809316,9.83578135 11.873736,9.97519919 11.748535,10.0970814 C11.6233292,10.2194661 11.4809413,10.3225563 11.3259601,10.4030296 L3.16346871,14.598383 C3.08217499,14.6401107 2.99798508,14.6758199 2.91156407,14.7052283 C2.8263466,14.7342917 2.73915615,14.7570871 2.65067679,14.7734358 C2.5624429,14.789704 2.47317015,14.7995858 2.3835407,14.8030055 C2.29362376,14.8064517 2.20357817,14.8035534 2.11406132,14.7943317 Z" id="b44bc342-b83f-44d8-9fe9-a8f7383873d1" fill="#1C4637"></path>
                    </g>
                    <g id="ed5e4939-ca06-4842-8bf9-38ff7399ab22" transform="translate(0.000000, 47.000000)">
                        <path d="M184.141623,15.9761235 L37.6183373,17.6689657 C35.9589801,17.6877822 34.3140912,17.4768992 32.8062904,17.0520373 C31.2944903,16.6232236 29.9404333,16.0109425 28.8260704,15.2522508 C27.6553872,14.4572476 26.7366581,13.5356108 26.1168868,12.5344931 C24.784902,10.3745814 24.784902,7.99116082 26.1168868,5.83124909 C26.7368093,4.82994835 27.6555139,3.90807815 28.8260704,3.11273027 C29.940334,2.35338822 31.2943541,1.74034697 32.8062904,1.31066018 C34.3139013,0.885253366 35.9587595,0.67372391 37.6183373,0.691828933 L184.141623,2.31426289 C185.233658,2.33126207 186.297967,2.5284881 187.222302,2.88514042 C188.209295,3.26710656 189.058317,3.76872365 189.717162,4.35914622 C190.459187,5.01919186 191.023599,5.74787965 191.388891,6.51744389 C192.203703,8.2315164 192.203703,10.0524 191.388891,11.7664725 C191.023595,12.5363906 190.45919,13.265454 189.717162,13.925912 C189.058811,14.5178335 188.209792,15.0210032 187.222302,15.4044848 C186.298028,15.761317 185.23375,15.9588001 184.141623,15.9761235 L184.141623,15.9761235 Z" id="ad4c3588-958a-44e3-8958-86383ba49959" fill="#E0DFDC"></path>
                        <path d="M94.8876588,17.0075089 L37.6183373,17.6689657 C35.9589801,17.6877822 34.3140912,17.4768992 32.8062904,17.0520373 C31.2944903,16.6232236 29.9404333,16.0109425 28.8260704,15.2522508 C27.6553872,14.4572476 26.7366581,13.5356108 26.1168868,12.5344931 C25.4523209,11.4641477 25.1137433,10.3282212 25.1179104,9.1830614 C25.1179104,8.61458248 25.1990614,8.04719143 25.3620925,7.48755512 C25.5213507,6.94093554 25.7610893,6.40427538 26.0783705,5.88415041 C26.3904839,5.37249203 26.7798176,4.87978391 27.2413129,4.41242812 C27.69942,3.9485154 28.2295062,3.51275725 28.8242067,3.11120793 C29.4029992,2.71908354 30.0448717,2.36372175 30.7400798,2.05051747 C31.4084159,1.74989353 32.1268358,1.49347189 32.883323,1.28554157 C34.3708914,0.876158806 35.9878477,0.673412351 37.6183373,0.691828933 L94.8876588,1.32588358 L94.8876588,17.0075089 Z" id="b33bc1e4-6ad7-49be-b233-6aeb4dd08a7d" fill="#48A12A"></path>
                        <path d="M95.5567234,17.9996941 C95.165569,18.0045737 94.77836,17.9510172 94.4285699,17.8436542 C94.0723273,17.7331004 93.7575267,17.5783484 93.5041798,17.3892357 C93.2304331,17.1856525 93.0185482,16.9536234 92.8786013,16.7041826 C92.7251821,16.4332282 92.6474734,16.1483595 92.6487273,15.8615674 L92.6487273,2.13767144 C92.647332,1.85062388 92.7250427,1.56549049 92.8786013,1.29429503 C93.0185215,1.04484688 93.2304089,0.812815024 93.5041798,0.609241983 C93.7577633,0.420671246 94.0725492,0.266444887 94.4285699,0.156345805 C94.77836,0.0489828286 95.165569,-0.00457374858 95.5567234,0.000305945259 C95.950242,0.00616120726 96.3357705,0.0695793587 96.6811496,0.185270267 C97.0351966,0.304444142 97.3467484,0.465807149 97.5974637,0.659859791 C97.8668037,0.867487098 98.0755059,1.10208574 98.214345,1.3532857 C98.3650437,1.62420373 98.4414537,1.90854298 98.440482,2.19475919 L98.440482,15.8044796 C98.4414313,16.0906947 98.3650219,16.3750317 98.214345,16.6459531 C98.0755481,16.8972807 97.8668454,17.1320088 97.5974637,17.3397596 C97.3468731,17.5340883 97.0353125,17.6957147 96.6811496,17.8151103 C96.3357161,17.9306686 95.9501906,17.9939558 95.5567234,17.9996941 L95.5567234,17.9996941 Z" id="f48897ce-ac32-418c-8d3c-67ca4382e4e0" fill="#2A2928"></path>
                        <path d="M2.11389673,16.3239782 C1.93195509,16.3265697 1.75053239,16.304409 1.57487748,16.258137 C1.48539768,16.2346439 1.39769493,16.2051414 1.31239855,16.1698413 C1.22506961,16.1336377 1.14037488,16.091676 1.05890327,16.0442482 C0.895716501,15.9499091 0.746223889,15.8347107 0.614407688,15.7017217 C0.48397404,15.5694239 0.371955566,15.4209927 0.2812313,15.2602431 C0.189174277,15.0971152 0.118946671,14.9231672 0.0722636953,14.7426474 C0.0239212381,14.5560206 -0.00035258266,14.364249 0,14.1717699 L0,4.21338216 C-0.000341167976,4.02090369 0.0239324786,3.82913352 0.0722636953,3.64250462 C0.119029355,3.46225298 0.189254536,3.28856676 0.2812313,3.12567016 C0.463714887,2.80116134 0.732467839,2.5304872 1.05929386,2.3420456 C1.2203307,2.24742911 1.3939455,2.1748196 1.57526808,2.12625389 C1.92846808,2.03309819 2.30139089,2.03824018 2.65174419,2.1410967 C2.832105,2.19414985 3.00433449,2.27056961 3.16381247,2.36830596 L11.3272199,7.34407456 L11.3565144,7.36234264 L11.3858089,7.38099131 L11.4147128,7.40002056 L11.4432262,7.4194304 C11.5742673,7.51176092 11.6939303,7.61852413 11.7998382,7.73759948 C11.9055805,7.85622229 11.9972955,7.98605659 12.0732537,8.12465445 C12.1498719,8.26508333 12.2105134,8.41324895 12.2540986,8.56651366 C12.2989822,8.72407282 12.3264795,8.8858496 12.3361266,9.04909547 L12.3361266,9.188009 C12.3364454,9.37588697 12.3133618,9.56310848 12.2673788,9.74556606 C12.2228109,9.92194135 12.1558961,10.0922289 12.068176,10.2525053 C11.9817473,10.4104069 11.8748949,10.5568578 11.7502328,10.6882752 C11.6242857,10.8202359 11.4810005,10.9354076 11.3240951,11.0308017 L3.16381247,16.0153237 C3.08307374,16.0647485 2.99903955,16.1088675 2.91227016,16.1473867 C2.82762005,16.1849532 2.7404469,16.216869 2.6513536,16.2429136 C2.56379279,16.2685266 2.47452647,16.2882367 2.38418754,16.3019043 C2.29472231,16.3153389 2.2044089,16.3227146 2.11389673,16.3239782 L2.11389673,16.3239782 Z" id="b8c06ef9-eeb4-4e99-947d-47e1efa9800c" fill="#1C4637"></path>
                    </g>
                    <g id="Group-2" transform="translate(0.000000, 83.000000)">
                        <path d="M184.135316,14.246184 L37.5093434,26.9322338 C34.280026,27.2293083 31.0198988,26.539079 28.710604,25.0693778 C27.5319908,24.3220285 26.6088095,23.4271765 25.9991875,22.4411653 C25.3279535,21.3539718 24.9888967,20.1949741 25,19.0265898 C25.0123499,16.6204104 26.3227036,14.2901777 28.7112256,12.4273231 C29.822282,11.5556625 31.171551,10.8193996 32.6938129,10.2541231 C34.1691549,9.70555459 35.8106866,9.3634568 37.5093434,9.25055898 L184.135316,0.0179272565 C185.19603,-0.0499894873 186.265157,0.0759324621 187.217827,0.380986012 C188.20177,0.703719519 189.056114,1.16643196 189.714792,1.73334024 C190.463625,2.37301002 191.030047,3.09172679 191.388137,3.8565998 C191.801336,4.72798984 192.007508,5.63392875 192,6.54426511 C192,7.48421208 191.794614,8.4195845 191.388137,9.32309146 C191.015343,10.1621238 190.451561,10.9617535 189.714792,11.6964494 C189.053657,12.3635662 188.207535,12.9483438 187.217827,13.4221675 C186.314366,13.8566692 185.254617,14.1399613 184.135316,14.246184 L184.135316,14.246184 Z" id="b462dce5-9b01-4b3d-8b91-2a1db41ed251" fill="#E0DFDC"></path>
                        <path d="M161.780952,16.4644772 L37.5737479,26.9336412 C34.3278004,27.2245458 31.0508845,26.5486518 28.7296976,25.1094746 C27.5449996,24.3776546 26.617062,23.5013856 26.004318,22.5358471 C25.3299386,21.4717191 24.9891414,20.3373377 25,19.193741 C25,18.6082415 25.0826953,18.0238637 25.2458103,17.4471984 C25.7336553,15.7144325 26.9332252,14.0892193 28.728448,12.7288167 C29.3107471,12.2872313 29.9556249,11.8789751 30.6553325,11.5089538 C31.3240549,11.1544549 32.0456273,10.8403398 32.8102693,10.5708664 C33.5487591,10.3110288 34.3276894,10.0982896 35.1351517,9.93590116 C35.9269694,9.7769254 36.7438337,9.67088577 37.5718735,9.6195829 L161.780952,2 L161.780952,16.4644772 Z" id="aa3c64d8-5563-4d05-b78c-2abe85ac0fb1" fill="#48A12A"></path>
                        <path d="M2.05571678,28.9827661 C1.96845763,28.9949004 1.88050191,29.00064 1.79248575,29 C1.70524986,28.9993097 1.61816936,28.9921007 1.53191362,28.9783719 C1.35795093,28.9504812 1.18886522,28.8956935 1.03014135,28.815786 C0.714013729,28.6574722 0.450404006,28.4029238 0.273494591,28.0851483 C0.183176296,27.9227959 0.114781653,27.7480141 0.0702787196,27.5658323 C0.0231215112,27.3736387 -0.000493317876,27.175896 0,26.9774074 L0,16.5231767 C0,16.3182701 0.0236033363,16.1141175 0.0702787196,15.9151775 C0.211531037,15.315748 0.551991105,14.7892204 1.03014135,14.4307327 C1.18539493,14.3136392 1.35395961,14.2174187 1.53191362,14.14431 C1.70018663,14.0753235 1.8764772,14.0303166 2.05609662,14.0104862 C2.2305024,13.9914 2.40659975,13.9983937 2.57914009,14.0312589 C2.75229386,14.0645314 2.91991743,14.1241459 3.07673409,14.2082258 L11.0154476,18.4558312 L11.0443156,18.4714107 L11.0728038,18.4877891 L11.1009122,18.504567 L11.1286407,18.5217444 C11.2490566,18.5985042 11.3600433,18.6905408 11.4591039,18.7957835 C11.5578137,18.9007144 11.6442689,19.0176543 11.7166373,19.1441247 C11.7905741,19.2736377 11.8503365,19.4115347 11.8947835,19.5551833 C11.941166,19.705357 11.9722345,19.8602916 11.9874652,20.0173745 C11.989491,20.0381471 11.9912636,20.0589198 11.992783,20.0796924 C11.9943023,20.1004651 11.9955685,20.121504 11.9965814,20.1428093 C11.9965814,20.1638482 11.9973411,20.1850204 11.9988605,20.2063256 C12.0003798,20.2277343 12.0003798,20.2492323 11.9988605,20.2706409 C11.9988556,20.4705903 11.9764164,20.6698406 11.9320081,20.8642591 C11.8448681,21.2506474 11.6742046,21.6107083 11.4332746,21.9164732 C11.3099471,22.0706246 11.1696947,22.2088732 11.0154476,22.3283307 L3.07673409,28.533358 C2.99834667,28.5946524 2.91653354,28.6509462 2.83173552,28.701936 C2.74983476,28.7512446 2.66509226,28.7951386 2.57800056,28.8333629 C2.49341243,28.8705159 2.40662697,28.9018735 2.31818812,28.9272392 C2.2319738,28.9518868 2.14428733,28.9704372 2.05571678,28.9827661 Z" id="b26b52bd-87f8-4a7b-abf9-07c8514958b4" fill="#1C4637"></path>
                        <path d="M160.994477,16.9889096 C160.679178,17.0176692 160.357512,16.9902324 160.065278,16.9096524 C159.768828,16.8251804 159.508063,16.6972538 159.304344,16.5363513 C159.073919,16.3561052 158.898489,16.1500675 158.787084,15.9288452 C158.659946,15.6761759 158.596836,15.4122531 158.600122,15.1469734 L158.600122,2.20309201 C158.599099,1.92869552 158.662106,1.65572086 158.787084,1.39308394 C158.903048,1.14950136 159.077528,0.918780905 159.304344,0.709094739 C159.50803,0.518097163 159.766369,0.353151619 160.065901,0.222852125 C160.342289,0.102519309 160.661381,0.0277577744 160.994477,0.00529124846 C161.312354,-0.0145191674 161.632685,0.0215314422 161.92056,0.1095144 C162.215844,0.201839951 162.474158,0.335739858 162.675885,0.501044721 C162.90219,0.68537817 163.07445,0.894116445 163.184421,1.11726906 C163.310308,1.36957977 163.37339,1.63285395 163.371429,1.8975557 L163.371429,14.7435545 C163.371196,15.0172454 163.308212,15.2894546 163.184421,15.5515812 C163.070095,15.7970488 162.898687,16.0302658 162.675885,16.2434961 C162.47381,16.4388035 162.217929,16.6093005 161.92056,16.746779 C161.647103,16.8738124 161.329369,16.9568861 160.994477,16.9889096 L160.994477,16.9889096 Z" id="ac880d58-80e8-403c-adcc-ec282a435c95" fill="#2A2928"></path>
                    </g>
                    <g id="person" transform="translate(157.000000, 58.000000)">
                        <path d="M5.42372337,30.0393008 C6.57846461,29.8771408 7.74759392,30.2218074 8.61652182,30.9805577 C9.48544971,31.739308 9.96491748,32.834201 9.92590988,33.9706228 L23,38.8753292 L17.0766095,43 L5.56933559,37.7100517 C3.57097515,37.5153718 2.03784211,35.8947327 2.00068852,33.9377181 C1.96353493,31.9807036 3.4341045,30.3058973 5.42370769,30.0393008 L5.42372337,30.0393008 Z" id="Path" fill="#FFDBB6"></path>
                        <path d="M54.8052797,27 L57,31.0170502 C56.4696984,33.5649001 55.098936,35.8572663 53.110554,37.5214851 C49.75034,40.3744478 32.1807439,51 32.1807439,51 L10,39.7899742 L13.8802228,34.5991521 L31.2942301,40.4743129 L41.1179992,31.1354307 L54.8052797,27 Z" id="Path" fill="#BEBBB7"></path>
                        <polygon id="Rectangle" fill="#1C4637" transform="translate(62.342806, 127.098901) rotate(-10.670920) translate(-62.342806, -127.098901) " points="61.1707469 89.592995 63.514866 89.592995 63.514866 164.604807 61.1707469 164.604807"></polygon>
                        <polygon id="Rectangle" fill="#1C4637" transform="translate(41.718178, 127.098891) rotate(-169.329080) translate(-41.718178, -127.098891) " points="40.5461185 89.5929852 42.8902376 89.5929852 42.8902376 164.604797 40.5461185 164.604797"></polygon>
                        <ellipse id="Oval" fill="#1C4637" cx="50.5" cy="87.5" rx="17.5" ry="5.5"></ellipse>
                        <polygon id="Path" fill="#FFDBB6" points="12.9992263 159 8.25621753 158.999619 6 141 13 141.000381"></polygon>
                        <path d="M14.9997268,164 L0,163.999449 L0,163.810623 C0.000224206617,160.60156 2.61401051,158.000171 5.83831417,158 L5.83869362,158 L15,158.000378 L14.9997268,164 Z" id="Path" fill="#142B4A"></path>
                        <polygon id="Path" fill="#FFDBB6" points="37 133.72725 32.8630148 136 22 121.354487 28.1056169 118"></polygon>
                        <path d="M40,137.446094 L26.8361001,145 L26.743282,144.828601 C25.1660327,141.915578 26.1811319,138.237861 29.0106691,136.61383 L29.0109931,136.613642 L37.0510864,132 L40,137.446094 Z" id="Path" fill="#142B4A"></path>
                        <path d="M63.8592078,74.0712536 C63.8592078,74.0712536 66.1889293,81.2428282 51.8945517,90.3123854 L33.4849478,108.538347 L14.3563519,154 L3,148.941572 L20.4640473,102.62631 L30.6766574,84.8604232 L30.9729181,75.220359 L33.4849478,68.4250221 L51.7095038,62 L63.8592078,74.0712536 Z" id="Path" fill="#142B4A"></path>
                        <path d="M27.2313353,134 L8.13606655,105.518508 C6.32737567,102.815205 6.71150301,99.2225066 9.05184085,96.9533776 L28.3860696,78.2431301 L31.6642501,75 L39,75 L35.5601745,87.5556317 L23.6267964,100.937983 L37.4221662,125.088952 L27.2313353,134 Z" id="Path" fill="#142B4A"></path>
                        <path d="M37.0655636,77.443592 C37.2665398,76.3272659 37.9547872,75.3567367 38.9451111,74.7931557 C39.935435,74.2295747 41.126106,74.130835 42.1967366,74.5235056 L50.8939138,64 L53,70.7598193 L44.418113,79.7167723 C43.6174841,81.4994592 41.6016071,82.4053515 39.7257815,81.8254064 C37.8499559,81.2454612 36.7070971,79.362989 37.0655636,77.4435997 L37.0655636,77.443592 Z" id="Path" fill="#FFDBB6"></path>
                        <path d="M47.8935657,77 L44,71.3709707 L55.0562428,56.6163153 L49.3606385,44.400634 L49.7753796,29.8701961 L54.4819354,29 L54.5403656,29.0293346 C56.8285391,30.3476266 58.5972969,32.4096924 59.5528788,34.8730581 C60.7270172,37.8109195 63.3480409,48.8396224 64.8059652,55.1519668 C65.388284,57.6392676 64.6399772,60.2508795 62.8291116,62.051242 L47.8935657,77 Z" id="Path" fill="#BEBBB7"></path>
                        <path d="M52.3470777,24.4493699 C57.3170661,24.4493699 61.6613518,20.053925 61.6613518,15.0839366 C61.6613518,10.1139482 57.6323801,6.08497662 52.6623918,6.08497662 C47.6924034,6.08497662 43.6634318,10.1139482 43.6634318,15.0839366 C43.6634318,16.4244298 43.9565296,17.6964664 44.4821358,18.8394565 C44.6363688,19.1748537 40.6787816,20.4892097 40.8715245,20.8008526 C42.1486813,22.8658678 44.9270951,30.2108467 46.329922,28.0262173 C47.5381312,26.1446673 51.7173734,24.4493699 52.3470777,24.4493699 Z" id="Oval" fill="#FFDBB6" transform="translate(51.263028, 17.256383) rotate(-59.270990) translate(-51.263028, -17.256383) "></path>
                        <path d="M40.9175053,35.2074665 L46.6075759,27.0480685 L59.6090628,26 C59.6090628,26 70.7863025,36.5517532 68.7527152,50.4457998 C66.7191279,64.3398463 64.7715608,78 64.7715608,78 C64.7715608,78 44.5168625,63.5592785 34,68.6330455 L40.9175053,35.2074665 Z" id="Path" fill="#BEBBB7"></path>
                        <path d="M56.1658515,11.4966783 C56.0707788,12.785455 57.2953944,17.5376611 57.2953944,17.5376611 C58.1928733,16.0474167 56.7830351,21 56.7830351,21 C71.5121511,10.865734 59.873993,0.684277108 55.3214601,1.58934234 C55.4165054,0.300557935 51.7035739,0.811114862 51.7035739,0.811114862 C50.2888442,-1.36354168 47.1882166,1.52312021 47.1882166,1.52312021 L47.7865372,0.529622672 C45.3792794,1.13400262 43,8.47757988 43,8.47757988 C43.8163896,11.6457108 56.2609241,10.2078978 56.1658515,11.4966783 Z" id="Path" fill="#453100"></path>
                    </g>
                </g>
            </g>
        </g>
    </g>
</svg>