<?xml version="1.0" encoding="UTF-8"?>
<svg width="865px" height="570px" viewBox="0 0 865 570" version="1.1" xmlns="http://www.w3.org/2000/svg" xmlns:xlink="http://www.w3.org/1999/xlink">
    <title>Logo/Primary</title>
    <g id="Favicon" stroke="none" stroke-width="1" fill="none" fill-rule="evenodd">
        <g transform="translate(-68.000000, -215.000000)" fill="#1C4637" fill-rule="nonzero" id="Logo/Primary">
            <g transform="translate(68.000000, 215.000000)">
                <path d="M61.3909722,569.348659 C78.8831944,569.348659 95.0298611,561.778583 106.298889,550.00291 L88.3020833,533.853415 C81.5743056,541.591715 71.9872222,546.806656 61.3909722,546.806656 C42.0486111,546.806656 25.5655556,529.647817 25.5655556,509.460949 C25.5655556,489.442304 42.0486111,472.283466 61.3909722,472.283466 C71.9872222,472.283466 81.5743056,477.498407 88.3020833,485.236706 L106.298889,469.087211 C95.0298611,457.143314 78.8831944,449.741462 61.3909722,449.741462 C28.2566667,449.741462 4.91695573e-14,476.993735 4.91695573e-14,509.460949 C4.91695573e-14,541.928163 28.2566667,569.348659 61.3909722,569.348659 Z M226.455799,567.329972 L226.455799,544.956193 L168.933299,544.956193 L168.933299,451.760149 L144.040522,451.760149 L144.040522,567.329972 L226.455799,567.329972 Z M290.940349,567.329972 L290.940349,451.760149 L266.047571,451.760149 L266.047571,567.329972 L290.940349,567.329972 Z M362.993648,567.329972 L362.993648,495.330141 L398.819065,560.601016 L434.476287,495.330141 L434.476287,567.329972 L459.369065,567.329972 L459.369065,451.760149 L434.476287,451.760149 L398.819065,517.031025 L362.993648,451.760149 L338.269065,451.760149 L338.269065,567.329972 L362.993648,567.329972 Z M524.862781,567.329972 L532.263337,549.161791 L583.730837,549.161791 L591.131392,567.329972 L619.05167,567.329972 L571.957225,451.760149 L544.205142,451.760149 L497.110698,567.329972 L524.862781,567.329972 Z M575.15292,528.133802 L540.841253,528.133802 L557.997087,485.909602 L575.15292,528.133802 Z M699.682886,567.329972 L699.682886,474.133929 L735.676497,474.133929 L735.676497,451.760149 L638.796497,451.760149 L638.796497,474.133929 L674.790108,474.133929 L674.790108,567.329972 L699.682886,567.329972 Z M864.579519,567.329972 L864.579519,544.956193 L800.497435,544.956193 L800.497435,519.554383 L858.524519,519.554383 L858.524519,497.180604 L800.497435,497.180604 L800.497435,474.133929 L864.579519,474.133929 L864.579519,451.760149 L775.604658,451.760149 L775.604658,567.329972 L864.579519,567.329972 Z" id="CLIMATE"></path>
                <path d="M243.130218,358.821591 C298.242621,358.821591 342.88375,341.614688 377.053606,307.200883 C382.091103,302.127423 384.918135,295.267885 384.918135,288.118314 L384.918135,171.980429 C384.918135,162.008621 376.834387,153.924874 366.862579,153.924874 L236.011329,153.924874 C231.025425,153.924874 226.983552,157.966748 226.983552,162.952652 L226.983552,209.999747 C226.983552,214.985651 231.025425,219.027525 236.011329,219.027525 L301.157302,219.027525 L301.157302,219.027525 L301.157302,262.429293 C284.001468,274.036742 263.313552,280.597475 243.130218,280.597475 C189.139802,280.597475 143.222718,234.167677 143.222718,179.15846 C143.222718,124.653914 189.139802,78.2241162 243.130218,78.2241162 C268.87756,78.2241162 293.162222,88.7776048 315.984205,109.884582 C319.392994,113.037213 324.63728,113.090038 328.108884,110.006714 L377.40871,66.2207998 C381.13658,62.9098733 381.474577,57.2038018 378.16365,53.4759331 C377.912415,53.1930595 377.643645,52.9262588 377.358933,52.6771092 C337.228187,17.5590364 292.485282,0 243.130218,0 C140.699802,0 54.9206349,81.7568182 54.9206349,179.15846 C54.9206349,276.560101 140.699802,358.821591 243.130218,358.821591 Z M622.721052,358.821591 C724.142302,358.821591 809.416885,276.560101 809.416885,179.15846 C809.416885,81.7568182 724.142302,0 622.721052,0 C521.804385,0 436.529802,81.7568182 436.529802,179.15846 C436.529802,276.560101 521.804385,358.821591 622.721052,358.821591 Z M622.721052,280.597475 C569.739802,280.597475 524.831885,234.167677 524.831885,179.15846 C524.831885,124.653914 569.739802,78.2241162 622.721052,78.2241162 C675.702302,78.2241162 720.610218,124.653914 720.610218,179.15846 C720.610218,234.167677 675.702302,280.597475 622.721052,280.597475 Z" id="GO"></path>
            </g>
        </g>
    </g>
</svg>