<svg version="1" xmlns="http://www.w3.org/2000/svg" width="400" height="400" viewBox="0 0 300.000000 300.000000"><path d="M132.5 7.6c-1.1.3-5.6 1.2-10 2-20.4 3.9-41.9 13.9-60 28-26.2 20.3-45 50.7-52.2 84.4-2.6 12.1-2.6 43.9 0 56 7.5 35.1 27.9 66.9 56 87.4 10 7.3 27.8 16.6 39.2 20.4 16.5 5.6 24 6.7 45.5 6.7s29-1.1 45.5-6.7c11.4-3.8 29.2-13.1 39.2-20.4 28.1-20.5 48.5-52.3 56-87.4 2.6-12.1 2.6-43.9 0-56-10.8-50.6-46.8-91.4-95.2-107.8-15.7-5.4-22.4-6.4-43-6.7-10.4-.2-19.9-.2-21 .1zM172 27.4c2.8 1.3 8.8 3.5 13.3 4.7 6.3 1.9 9 3.2 11.8 6 4.1 4.1 5.8 10.4 3.4 12.8-2.2 2.2-11.3 2.5-18.5.7-3.4-.9-6.4-1.5-6.5-1.4-.1.2-.5 2.5-.8 5.3l-.7 5 10.7 5.5c14.5 7.5 24.3 15.4 28.1 22.6 2.3 4.4-5.1 7.9-14.9 6.9-6.3-.6-6.5-.6-7.7 2-.7 1.4-1.2 3.4-1.2 4.5s-1.7 3-4.2 4.7c-5.7 3.9-7.4 6.6-9.8 15.7-2.4 9.2-4.1 12.7-8.6 18-3.2 3.8-3.4 4.4-3.4 11.8 0 7.1-2.3 20.2-3.9 22-1 1.2-13.6-9.2-18.1-14.9-2.2-2.9-4.9-5.4-5.8-5.7-4.6-1.2-15.2-1.7-17.1-.6-2.7 1.4-5.1 6.1-5.1 9.7.1 5.9 5 13.3 8.9 13.3.5 0 3.1-1.8 5.6-4 8-6.9 12-4.7 13.2 7.3l.6 6.6 3.8.6c2.1.4 5 1.5 6.3 2.6 2.2 1.7 2.5 2.7 2.3 7.8-.2 7.5 1.3 9.5 6.5 8.8 2-.3 6.4-2.1 9.7-4.1 7.6-4.7 16.5-6.6 30.5-6.6 8.1 0 12.3.5 16.5 1.9 12.8 4.4 26.1 8.1 28.8 8.1 1.7 0 4.5.5 6.3 1.1 3 1.1 3.2 1.4 2.6 4.8-1.3 8.1-7.7 18.1-19.1 30-18 18.6-33.6 29-48.5 32.5-9.7 2.3-12.7 2.1-13.4-.8-.3-1.4-.2-3.6.4-5.1 1.4-3.7 1.3-4.3-1.2-5.1-6.8-2.1-19.8-15.9-19.8-21 0-1.1 2.3-6.5 5.1-12 6-12 6-14-.3-14.2-5.4-.3-12-3.4-25-11.9-5.9-3.9-12.8-7.9-15.5-8.9-16.1-5.9-24.6-9.7-30.6-13.8-3.8-2.5-7.7-4.6-8.7-4.6-1.3 0-1.9-1.1-2.4-4-.3-2.1-2.2-7.5-4.1-11.9-2.7-6.2-3.5-9.2-3.5-14 0-3.3-.9-10.7-2-16.3-3.6-18.4-2.8-24 6.4-46 2-4.8 4.3-11.7 5.1-15.3 1.5-6.4 1.5-6.8-.5-9.9-1.1-1.9-2-4.3-2-5.6 0-3 5.7-8.1 14.4-12.7 7.1-3.8 7.1-3.8 19.6-3.9 18.4-.1 38.2-4.4 46.5-10 3.1-2.2 10.7-1.7 16.5 1z"/><path d="M148.7 55.9c-4.3 4-5 4.3-7.3 3.2-1.4-.6-2.7-1.1-2.9-1.1-.7 0-7.5 11.4-7.5 12.6 0 2.3 12.3 5.8 27.7 7.8l4.1.6-3.4-8.8c-1.8-4.8-3.9-10.9-4.6-13.7l-1.4-5-4.7 4.4z"/></svg>