<svg width="657" height="375" viewBox="0 0 657 375" fill="none" xmlns="http://www.w3.org/2000/svg">
    <path d="M29.2832 282.925C7.1957 249.792 -2.92691 187.493 0.733338 156.508C3.60025 132.24 13.3176 100.396 29.2832 84.318C50.3659 63.0868 74.0317 44.2821 99.5181 33.3632C128.21 21.0711 170.277 9.36369 230.598 2.67106C305.999 -5.69472 362.301 5.25103 459.729 40.3171C563.259 77.5794 632.664 127.9 647.134 161.621C669.927 214.738 648.037 243.164 633.518 260.233C592.561 308.381 537.408 322.198 488.279 340.556C459.729 351.224 301.145 383.069 230.598 373.089C159.731 363.064 53.0224 318.536 29.2832 282.925Z" fill="#ECF5E6"/>
</svg>
