<?xml version="1.0" encoding="UTF-8"?>
<svg width="364px" height="308px" viewBox="0 0 364 308" version="1.1" xmlns="http://www.w3.org/2000/svg" xmlns:xlink="http://www.w3.org/1999/xlink">
    <title>gift card line copy</title>
    <g id="Page-1" stroke="none" stroke-width="1" fill="none" fill-rule="evenodd">
        <g id="GiftCard" transform="translate(2.000000, -101.000000)" fill-rule="nonzero" stroke="#1C4637" stroke-width="2.5">
            <path d="M1.7,262.2 C4.2,246.5 7,228 21,212 C25.2367745,207.157972 32.3,201.5 38,198 C58.2,185.5 78,175 97,164 C116,153 131.9,147.6 151,139 C166.3,132.2 179.7,125.6 196,121 C205.1,118.4 214.9,112.5 224,110 C229.52832,108.505859 234.362099,106.937304 239.254934,105.652601 C244.186145,104.357822 254.177344,103.351367 260,103 C280.8,101.7 297.8,112.3 313,124 C328.2,135.7 335.1,148 342,161 C347.9,172.2 352.2,181.8 355,194 C356.4,199.8 357,206.2 358,212 C359.3,219.4 361,230.1 360.1,237.6 C358.3,252.2 355.8,266.8 351,281 C342.3,307 331,334.3 310,355 C294.2,370.6 278.9,378 257,386.6 C247.7,390.3 238.1,393.1 228.2,395.3 C223.9,396.3 219.7,397.8 215.5,398.9 C203.5,402.2 191.4,404.4 179,406 C161.8,408.2 140.2,407.4 123.1,406.1 C102.6,404.6 83.1,400.3 65.1,392.2 C52.3,386.4 41.1,378.8 31.8,369.3 C24.4,361.8 18.6,353.4 13.9,344.3 C9.5,335.8 6.5,326.9 4.1,317.8 C3.3,313.8 2.7,309.6 2.1,306.7 C-0.3,291 -0.5,276.6 1.7,262.2 Z" id="gift-card-line-copy"></path>
        </g>
    </g>
</svg>