<?xml version="1.0" encoding="UTF-8"?>
<svg width="95px" height="67px" viewBox="0 0 95 67" version="1.1" xmlns="http://www.w3.org/2000/svg" xmlns:xlink="http://www.w3.org/1999/xlink">
    <title>gift_card_blob</title>
    <g id="Page-1" stroke="none" stroke-width="1" fill="none" fill-rule="evenodd">
        <g id="GiftCard" transform="translate(-134.000000, -23.000000)" fill-rule="nonzero">
            <g id="gift_card_blob" transform="translate(133.947945, 0.722137)">
                <path d="M94.0520547,54.2778633 C89.3072501,73.2570818 66.4520547,84.7778633 47.5520547,84.3778633 C32.8520547,84.0778633 19.9520547,76.6778633 12.1520547,64.2778633 C7.25205472,56.4778633 5.15205472,47.1778633 7.25205472,38.5778633 C8.15205472,34.7778633 9.95205472,31.0778633 12.7520547,27.6778633 C17.0520547,22.3778633 25.1520547,22.2778633 31.7520547,23.9778633 C38.3520547,25.6778633 47.0520547,26.4778633 53.8520547,27.1778633 C62.3520547,27.9778633 70.9520547,26.4778633 79.2520547,28.5778633 C84.2520547,29.8778633 89.0520547,32.5778633 91.8520547,36.8778633 C93.4520547,39.4778633 95.0520547,44.1748584 95.0520547,47.2778633 C95.0520547,49.2778633 95.0520547,50.2778633 94.0520547,54.2778633 Z" id="Path" fill="#ACC8EA"></path>
                <path d="M8.95205472,29.5778633 C14.3520547,24.5778633 23.2520547,26.1778633 26.8520547,27.0778633 C33.4520547,28.7778633 41.6520547,29.5778633 49.5520547,30.3778633 C52.9520547,30.6778633 56.4520547,30.6778633 59.7520547,30.6778633 C64.9520547,30.5778633 70.3520547,30.5778633 75.5520547,31.8778633 C81.0520547,33.2778633 85.5520547,36.2778633 88.1520547,40.0778633 C91.0520547,44.4778633 91.7520547,50.4778633 90.1520547,56.2778633 C88.3520547,62.6778633 84.4520547,68.7778633 78.8520547,73.8778633 C69.2520547,82.6778633 55.6520547,87.9778633 43.2520547,87.6778633 C35.9520547,87.4778633 28.8520547,85.5778633 22.7520547,82.0778633 C16.6520547,78.5778633 11.3520547,73.4778633 7.45205472,67.3778633 C3.75205472,61.4778633 1.75205472,55.0778633 1.65205472,48.6778633 C1.55205472,41.8778633 3.75205472,35.6778633 7.95205472,30.5778633 C8.25205472,30.2778633 8.65205472,29.9778633 8.95205472,29.5778633 L8.95205472,29.5778633 L8.95205472,29.5778633 Z M7.45205472,30.2778633 C-1.64794528,41.2778633 -0.447945276,56.1778633 6.85205472,67.7778633 C14.5063089,79.9289918 27.0123492,87.3198772 41.2170508,88.2863703 C41.8586831,88.3300272 42.5037813,88.360576 43.1520547,88.3778633 C55.6520547,88.6778633 69.4520547,83.3778633 79.1520547,74.3778633 C84.5520547,69.3778633 88.6520547,63.3778633 90.5520547,56.4778633 C92.1520547,50.8778633 91.7520547,44.5778633 88.5520547,39.7778633 C85.6520547,35.3778633 80.7520547,32.5778633 75.6520547,31.2778633 C67.1520547,29.0778633 58.2520547,30.5778633 49.5520547,29.7778633 C42.5520547,29.0778633 33.6520547,28.1778633 26.9520547,26.4778633 C20.7520547,24.9778633 13.2520547,24.8778633 8.55205472,29.1778633 C8.15205472,29.4778633 7.85205472,29.8778633 7.45205472,30.2778633 Z" id="Shape" fill="#295143"></path>
            </g>
        </g>
    </g>
</svg>