<?xml version="1.0" encoding="UTF-8"?>
<svg width="89px" height="74px" viewBox="0 0 89 74" version="1.1" xmlns="http://www.w3.org/2000/svg" xmlns:xlink="http://www.w3.org/1999/xlink">
    <title>gift_card_blob</title>
    <g id="Page-1" stroke="none" stroke-width="1" fill="none" fill-rule="evenodd">
        <g id="GiftCard" transform="translate(-140.000000, -18.000000)" fill-rule="nonzero">
            <g id="gift_card_blob" transform="translate(133.947945, 0.722137)">
                <path d="M11.9628874,55.0717138 C12.5250993,51.5138875 13.1547767,47.3215444 16.3031633,43.6957342 C17.2559493,42.598467 18.8443611,41.3162963 20.1262042,40.5231503 C24.6688763,37.690486 29.1215946,35.3110481 33.394405,32.8183036 C37.6672154,30.325559 41.2428831,29.1018481 45.538182,27.1529751 C48.9789188,25.6120058 51.9923746,24.116359 55.6579962,23.0739386 C57.7044475,22.4847444 59.9083181,21.1477269 61.9547694,20.5811941 C63.1980044,20.2426022 64.2850475,19.8871468 65.3853717,19.5960164 C66.4943259,19.3026025 68.7411941,19.0745265 70.0506208,18.9949021 C74.7282238,18.700305 78.5512647,21.1024043 81.969513,23.753778 C85.3877613,26.4051517 86.9394662,29.1924933 88.491171,32.1384641 C89.8179911,34.6765313 90.7849956,36.8520174 91.4146729,39.6166977 C91.7295116,40.9310539 91.8644424,42.381378 92.0893272,43.6957342 C92.3816774,45.3726714 92.7639814,47.797432 92.5615852,49.4970306 C92.1567926,52.8055824 91.5945807,56.1141342 90.5151339,59.3320408 C88.5586364,65.2239824 86.0174387,71.410521 81.2948587,76.101413 C77.7416795,79.636578 74.3009427,81.3135152 69.3759665,83.2623882 C67.2845382,84.1008568 65.1256445,84.7353736 62.8992854,85.2339225 C61.932281,85.4605356 60.987765,85.8004553 60.043249,86.0497298 C57.3446319,86.7975531 54.6235263,87.2961021 51.8349553,87.6586831 C47.9669374,88.157232 43.1094266,87.9759415 39.2638972,87.6813444 C34.6537597,87.3414247 30.2685068,86.3669882 26.2205812,84.5314218 C23.3420563,83.2170656 20.823347,81.4948057 18.7319187,79.3419809 C17.0677715,77.6423824 15.7634399,75.738832 14.7064815,73.6766524 C13.7169886,71.7504408 13.0423343,69.7335838 12.5026109,67.6714043 C12.3227031,66.7649517 12.1877722,65.8131765 12.0528413,65.1559984 C11.5131179,61.5981721 11.468141,58.334943 11.9628874,55.0717138 Z" id="gift-card-line-copy-2" stroke="#1C4637" transform="translate(52.118290, 53.470350) scale(-1, 1) rotate(54.000000) translate(-52.118290, -53.470350) "></path>
                <path d="M94.0520547,54.2778633 C89.3072501,73.2570818 66.4520547,84.7778633 47.5520547,84.3778633 C32.8520547,84.0778633 19.9520547,76.6778633 12.1520547,64.2778633 C7.25205472,56.4778633 5.15205472,47.1778633 7.25205472,38.5778633 C8.15205472,34.7778633 9.95205472,31.0778633 12.7520547,27.6778633 C17.0520547,22.3778633 25.1520547,22.2778633 31.7520547,23.9778633 C38.3520547,25.6778633 47.0520547,26.4778633 53.8520547,27.1778633 C62.3520547,27.9778633 70.9520547,26.4778633 79.2520547,28.5778633 C84.2520547,29.8778633 89.0520547,32.5778633 91.8520547,36.8778633 C93.4520547,39.4778633 95.0520547,44.1748584 95.0520547,47.2778633 C95.0520547,49.2778633 95.0520547,50.2778633 94.0520547,54.2778633 Z" id="Path" fill="#ACC8EA"></path>
            </g>
        </g>
    </g>
</svg>