<?xml version="1.0" encoding="UTF-8"?>
<svg width="87px" height="50px" viewBox="0 0 87 50" version="1.1" xmlns="http://www.w3.org/2000/svg" xmlns:xlink="http://www.w3.org/1999/xlink">
    <!-- Generator: Sketch 52.2 (67145) - http://www.bohemiancoding.com/sketch -->
    <title>logo_vit</title>
    <desc>Created with Sketch.</desc>
    <g id="Symbols" stroke="none" stroke-width="1" fill="none" fill-rule="evenodd">
        <g id="logo" fill="#829C85" fill-rule="nonzero">
            <g id="logo_vit">
                <g id="_Group_2" transform="translate(0.000000, 40.000000)">
                    <path d="M2.19522094,9.28287349 C1.58515673,8.90281026 1.09233494,8.33215796 0.779691842,7.64379226 C0.122260382,6.06732453 0.122260382,4.25573513 0.779691842,2.67926739 C1.09137413,1.9917802 1.58457769,1.42288234 2.19522094,1.04649032 C2.85531994,0.651913405 3.59839821,0.454094605 4.3501626,0.472811893 C4.89174939,0.468966572 5.42991593,0.56705614 5.9411943,0.762803187 C6.36217024,0.916158154 6.75271054,1.15576395 7.09203096,1.46886895 C7.15120592,1.52805219 7.16865569,1.62236565 7.13518734,1.70212281 L6.79281343,2.54372798 C6.77118794,2.60356775 6.72479898,2.64851141 6.66794458,2.6647064 C6.61109019,2.6809014 6.55059477,2.66640379 6.50510426,2.62568204 C6.21804711,2.38633069 5.90124158,2.19315173 5.56429529,2.05200361 C5.18252566,1.90055167 4.77919449,1.82477016 4.37317934,1.82820598 C3.66084832,1.78143497 2.96900457,2.09929294 2.50019266,2.68872363 C2.05712054,3.26240206 1.83558448,4.08509475 1.83558448,5.15680171 C1.83558448,6.22850867 2.05520248,7.05855621 2.49443848,7.64694434 C2.96394903,8.23936067 3.65839639,8.55860277 4.37317934,8.51061407 C4.77919948,8.51411713 5.18254141,8.4383336 5.56429529,8.28681644 C5.90125828,8.14570755 6.21806874,7.95252559 6.50510426,7.71313801 C6.55059477,7.67241626 6.61109019,7.65791865 6.66794458,7.67411365 C6.72479898,7.69030865 6.77118794,7.7352523 6.79281343,7.79509207 L7.13518734,8.63669724 C7.16865569,8.7164544 7.15120592,8.81076786 7.09203096,8.86995111 C6.75275053,9.18311943 6.36219863,9.42273234 5.9411943,9.57601687 C5.42993012,9.77182467 4.89175391,9.869916 4.3501626,9.86600816 C3.59740908,9.8839262 2.85379443,9.6827015 2.19522094,9.28287349 Z" id="_Compound_Path_"></path>
                    <path d="M8.49317461,9.54449607 L8.49317461,0.48226813 C8.49317461,0.37085403 8.57561415,0.280535056 8.67730847,0.280535056 L9.76484913,0.280535056 C9.86654345,0.280535056 9.94898299,0.37085403 9.94898299,0.48226813 L9.94898299,9.54449607 C9.94898299,9.65591017 9.86654345,9.74622915 9.76484913,9.74622915 L8.67730847,9.74622915 C8.57561415,9.74622915 8.49317461,9.65591017 8.49317461,9.54449607 Z" id="_Compound_Path_2"></path>
                    <path d="M11.6464671,0.315207928 L12.9095103,0.315207928 C13.0112046,0.315207928 13.0936442,0.405526902 13.0936442,0.516941003 L13.0936442,1.69581865 C13.0936442,1.80723276 13.0112046,1.89755173 12.9095103,1.89755173 L11.6464671,1.89755173 C11.5447728,1.89755173 11.4623332,1.80723276 11.4623332,1.69581865 L11.4623332,0.516941003 C11.4623332,0.463438065 11.481733,0.412126468 11.5162648,0.374294178 C11.5507966,0.336461888 11.5976317,0.315207928 11.6464671,0.315207928 Z M11.5572772,9.55395231 L11.5572772,3.46728721 C11.5572772,3.35587311 11.6397168,3.26555414 11.7414111,3.26555414 L12.8289518,3.26555414 C12.9306461,3.26555414 13.0130856,3.35587311 13.0130856,3.46728721 L13.0130856,9.56025647 C13.0130856,9.67167057 12.9306461,9.76198954 12.8289518,9.76198954 L11.7414111,9.76198954 C11.689978,9.76216179 11.6408234,9.73875834 11.6058465,9.69744466 C11.5708696,9.65613099 11.5532588,9.60067307 11.5572772,9.54449607 L11.5572772,9.55395231 Z" id="_Compound_Path_3"></path>
                    <path d="M23.1203087,3.74467019 C23.4482971,4.18596129 23.6122913,4.85735418 23.6122913,5.75884885 L23.6122913,9.54134399 C23.6122913,9.65275809 23.5298518,9.74307707 23.4281575,9.74307707 L22.3291084,9.74307707 C22.2274141,9.74307707 22.1449746,9.65275809 22.1449746,9.54134399 L22.1449746,5.80928212 C22.1735052,5.42135934 22.0931998,5.03314401 21.9148072,4.69659813 C21.7292338,4.45339229 21.4461596,4.32603852 21.1581321,4.35617357 C20.7884105,4.33477167 20.4318688,4.50955331 20.2000606,4.82583338 C19.9521966,5.2000049 19.8302054,5.65664552 19.8548096,6.11818589 L19.8548096,9.54449607 C19.8548096,9.65591017 19.7723701,9.74622915 19.6706757,9.74622915 L18.5716267,9.74622915 C18.4699324,9.74622915 18.3874929,9.65591017 18.3874929,9.54449607 L18.3874929,5.80928212 C18.4153803,5.42180039 18.330795,5.03457293 18.1458172,4.70290229 C17.9602312,4.45914622 17.6778686,4.32976016 17.389142,4.35617357 C17.0183118,4.3378602 16.6612446,4.51185447 16.4253163,4.82583338 C16.1736552,5.19822031 16.0494187,5.65564212 16.0743112,6.11818589 L16.0743112,9.54449607 C16.0743112,9.65591017 15.9918716,9.74622915 15.8901773,9.74622915 L14.8055137,9.74622915 C14.7038194,9.74622915 14.6213799,9.65591017 14.6213799,9.54449607 L14.6213799,5.09060804 C14.6240781,4.55170179 14.6010299,4.01301012 14.5523297,3.47674345 C14.546636,3.42007797 14.5630918,3.36341864 14.5976275,3.32077736 C14.6321633,3.27813609 14.6815544,3.25349426 14.7335864,3.25294582 L15.7376914,3.25294582 C15.8309135,3.25392947 15.9087559,3.33108981 15.9189482,3.43261434 L16.005261,4.28367575 C16.1658245,3.9124049 16.4257309,3.60347 16.7504277,3.39794147 C17.0919978,3.18484858 17.4794748,3.07599949 17.8724934,3.08273354 C18.7797364,3.08273354 19.3704992,3.49460523 19.6447819,4.31834862 C19.8273129,3.93764255 20.1059655,3.62250893 20.4474905,3.41054979 C20.8044658,3.19388701 21.2076026,3.08510182 21.6155897,3.09534186 C22.1821188,3.04304512 22.7385091,3.28314309 23.1203087,3.74467019 Z" id="_Compound_Path_4"></path>
                    <path d="M30.8424227,3.46728721 L30.8424227,9.56025647 C30.8424227,9.67167057 30.7599832,9.76198954 30.6582888,9.76198954 L29.5822565,9.76198954 C29.4805622,9.76198954 29.3981227,9.67167057 29.3981227,9.56025647 L29.3981227,8.7186513 C29.2205242,9.07582829 28.9515181,9.36835432 28.624185,9.56025647 C28.2712918,9.77086605 27.8751887,9.87935654 27.4733483,9.8754644 C26.9892435,9.88458993 26.5129222,9.7412734 26.1009756,9.46254201 C25.6951741,9.17943069 25.3732932,8.77312137 25.1745521,8.2931206 C24.9465617,7.73996222 24.8344919,7.13790312 24.8465637,6.53110828 C24.8328377,5.91028173 24.9469074,5.29403922 25.1803063,4.72811893 C25.38133,4.23689933 25.7043415,3.81748069 26.112484,3.51772048 C26.5167645,3.22859303 26.990607,3.07823146 27.4733483,3.08588562 C27.8751887,3.08199347 28.2712918,3.19048396 28.624185,3.40109355 C28.9514176,3.59314463 29.220389,3.88563294 29.3981227,4.24269872 L29.3981227,3.46728721 C29.3981227,3.35587311 29.4805622,3.26555414 29.5822565,3.26555414 L30.6582888,3.26555414 C30.7071242,3.26555414 30.7539593,3.2868081 30.7884911,3.32464039 C30.8230229,3.36247268 30.8424227,3.41378427 30.8424227,3.46728721 Z M29.001084,8.0346501 C29.2913005,7.58010023 29.4322791,7.03118031 29.4009998,6.47752293 C29.4325876,5.91793063 29.2917564,5.36292454 29.001084,4.90148329 C28.721902,4.52390873 28.2928339,4.31824975 27.8502474,4.34986941 C27.4095975,4.3270712 26.9864983,4.54119292 26.7166732,4.92354784 C26.4251872,5.3848257 26.2824336,5.9394274 26.3110033,6.49958748 C26.2781695,7.05044606 26.4216218,7.59661627 26.7166732,8.04410633 C27.0013789,8.41234022 27.427819,8.61206759 27.8675099,8.58311189 C28.3040054,8.61136491 28.7261228,8.40713014 29.001084,8.0346501 Z" id="_Compound_Path_5"></path>
                    <path d="M34.3064411,4.46019219 L34.3064411,7.36640929 C34.3064411,8.12921247 34.6315524,8.51061407 35.2817751,8.51061407 C35.4035455,8.50997844 35.5249651,8.49625368 35.6442887,8.46963704 C35.6986255,8.45629001 35.7555567,8.47059995 35.7991487,8.50856187 C35.8427408,8.54652378 35.8683106,8.60405938 35.8687018,8.66506595 L35.8687018,9.53503983 C35.8687442,9.62706763 35.8119334,9.70746181 35.7306014,9.73046875 C35.4687314,9.80605293 35.1986675,9.84210952 34.9278929,9.83763945 C34.3530201,9.87604268 33.7900046,9.64716417 33.3771405,9.20722359 C32.9909737,8.71654968 32.796663,8.07903423 32.8362472,7.43260295 L32.8362472,4.44758387 L31.8810528,4.44758387 C31.7793585,4.44758387 31.6969189,4.3572649 31.6969189,4.2458508 L31.6969189,3.46728721 C31.6969189,3.35587311 31.7793585,3.26555414 31.8810528,3.26555414 L32.8362472,3.26555414 L32.8362472,1.82820598 C32.8359916,1.74084408 32.8870919,1.66322944 32.9628393,1.63592915 L34.0618883,1.232463 C34.1180905,1.21220628 34.179754,1.22277127 34.2276279,1.26085968 C34.2755018,1.29894809 34.3037538,1.35991974 34.303564,1.42473984 L34.303564,3.26555414 L35.6931992,3.26555414 C35.7948936,3.26555414 35.8773331,3.35587311 35.8773331,3.46728721 L35.8773331,4.27421951 C35.8773331,4.38563361 35.7948936,4.47595258 35.6931992,4.47595258 L34.3064411,4.46019219 Z" id="_Compound_Path_6"></path>
                    <path d="M41.8933318,6.58154155 L37.97761,6.58154155 C37.9636098,7.13985362 38.1319473,7.68531008 38.4523302,8.11975624 C38.7947907,8.47367839 39.2574227,8.65330682 39.7268818,8.61463268 C40.3071075,8.6145483 40.8737523,8.42226397 41.3524386,8.06301881 C41.3982558,8.0303256 41.4549654,8.02163202 41.5072137,8.03929181 C41.559462,8.05695159 41.601844,8.09913792 41.6228852,8.15442911 L41.9105943,8.8857115 C41.9447955,8.97049091 41.9209137,9.06991572 41.8530525,9.12526953 C41.5694115,9.34394408 41.2570205,9.5140056 40.926629,9.62960221 C40.5232465,9.777878 40.1005755,9.85345942 39.6750941,9.85339984 C38.8278676,9.9085334 37.9967231,9.58299962 37.3734208,8.95190517 C36.7958498,8.2909447 36.4938155,7.39750894 36.5390642,6.48382709 C36.528252,5.87303497 36.652636,5.26846165 36.9015777,4.72181477 C37.1312262,4.22351071 37.485452,3.8070056 37.9229453,3.52087256 C38.3740484,3.22958145 38.8897141,3.08016362 39.4132788,3.0890377 C40.1422317,3.05032596 40.8493139,3.36781119 41.3438073,3.9558595 C41.846118,4.6250429 42.0998521,5.47700664 42.0544489,6.34198352 L42.0544489,6.38611263 C42.0523117,6.4859726 41.9837931,6.56908307 41.8933318,6.58154155 Z M38.5156262,4.62094823 C38.249267,4.91894442 38.0820729,5.30638557 38.040906,5.7210239 L40.800037,5.7210239 C40.7834772,5.31244614 40.640399,4.92223018 40.394367,4.61464407 C40.1475822,4.35659546 39.8143174,4.22195833 39.4736977,4.24269872 C39.1204288,4.22532586 38.7751508,4.3612345 38.5127491,4.62094823 L38.5156262,4.62094823 Z" id="_Compound_Path_7"></path>
                    <path d="M52.4493811,0.589438826 L53.513905,0.589438826 C53.6155994,0.589438826 53.6980389,0.6797578 53.6980389,0.7911719 L53.6980389,9.54449607 C53.6980389,9.65591017 53.6155994,9.74622915 53.513905,9.74622915 L52.6507775,9.74622915 C52.593324,9.74648009 52.5390564,9.71733576 52.5040459,9.66742716 L48.0474309,3.32859572 L48.0474309,9.54449607 C48.0474309,9.65591017 47.9649913,9.74622915 47.863297,9.74622915 L46.8217898,9.74622915 C46.7200955,9.74622915 46.637656,9.65591017 46.637656,9.54449607 L46.637656,0.788019821 C46.637656,0.676605721 46.7200955,0.586286747 46.8217898,0.586286747 L47.6849173,0.586286747 C47.7423708,0.5860358 47.7966385,0.615180135 47.831649,0.665088729 L52.2710014,6.99131185 L52.2710014,0.788019821 C52.272491,0.680246953 52.3510468,0.59279476 52.4493811,0.589438826 Z" id="_Compound_Path_8"></path>
                    <path d="M60.4045396,6.58154155 L56.5032033,6.58154155 C56.4892031,7.13985362 56.6575405,7.68531008 56.9779234,8.11975624 C57.3203839,8.47367839 57.783016,8.65330682 58.252475,8.61463268 C58.8327008,8.6145483 59.3993456,8.42226397 59.8780318,8.06301881 C59.9238491,8.0303256 59.9805587,8.02163202 60.032807,8.03929181 C60.0850552,8.05695159 60.1274373,8.09913792 60.1484784,8.15442911 L60.4361876,8.8857115 C60.4703888,8.97049091 60.4465069,9.06991572 60.3786458,9.12526953 C60.0950048,9.34394408 59.7826138,9.5140056 59.4522223,9.62960221 C59.0488398,9.777878 58.6261687,9.85345942 58.2006874,9.85339984 C57.3534609,9.9085334 56.5223163,9.58299962 55.899014,8.95190517 C55.321443,8.2909447 55.0194088,7.39750894 55.0646575,6.48382709 C55.0538453,5.87303497 55.1782292,5.26846165 55.427171,4.72181477 C55.6568194,4.22351071 56.0110453,3.8070056 56.4485385,3.52087256 C56.8996417,3.22958145 57.4153073,3.08016362 57.938872,3.0890377 C58.667825,3.05032596 59.3749072,3.36781119 59.8694005,3.9558595 C60.3717113,4.6250429 60.6254453,5.47700664 60.5800422,6.34198352 L60.5800422,6.38611263 C60.5771388,6.49148981 60.5006637,6.57664774 60.4045396,6.58154155 Z M57.026834,4.62094823 C56.7604748,4.91894442 56.5932807,5.30638557 56.5521138,5.7210239 L59.3112448,5.7210239 C59.294685,5.31244614 59.1516068,4.92223018 58.9055748,4.61464407 C58.65879,4.35659546 58.3255252,4.22195833 57.9849055,4.24269872 C57.6326172,4.22616455 57.2885155,4.36201697 57.026834,4.62094823 Z" id="_Compound_Path_9"></path>
                    <path d="M67.2318781,3.46728721 L67.2318781,9.56025647 C67.2318781,9.67167057 67.1494386,9.76198954 67.0477443,9.76198954 L65.9832203,9.76198954 C65.881526,9.76198954 65.7990865,9.67167057 65.7990865,9.56025647 L65.7990865,8.75962833 C65.6241497,9.10558133 65.3639376,9.39066407 65.0481655,9.58232102 C64.7164518,9.77601112 64.3450764,9.87366011 63.9692562,9.86600816 C62.52112,9.86600816 61.797052,8.97396972 61.797052,7.18989285 L61.797052,3.46728721 C61.797052,3.35587311 61.8794915,3.26555414 61.9811858,3.26555414 L63.0687265,3.26555414 C63.1704208,3.26555414 63.2528603,3.35587311 63.2528603,3.46728721 L63.2528603,7.18674077 C63.2265344,7.5568001 63.3202709,7.92516502 63.5175528,8.22692693 C63.7306412,8.46650767 64.030389,8.58907846 64.3346468,8.56104734 C64.7241799,8.57925127 65.1015099,8.40997828 65.3675227,8.09769168 C65.6372937,7.75592074 65.7764097,7.31336017 65.7559301,6.8620766 L65.7559301,3.46728721 C65.7559301,3.35587311 65.8383696,3.26555414 65.940064,3.26555414 L67.0362359,3.26555414 C67.0870328,3.26206897 67.1368807,3.28177417 67.1739435,3.31999077 C67.2110062,3.35820737 67.2319776,3.41152635 67.2318781,3.46728721 Z" id="_Compound_Path_10"></path>
                    <path d="M70.6958965,4.46019219 L70.6958965,7.36640929 C70.6958965,8.12921247 71.0210079,8.51061407 71.6712306,8.51061407 C71.7930009,8.50997844 71.9144205,8.49625368 72.0337441,8.46963704 C72.0880809,8.45629001 72.1450121,8.47059995 72.1886042,8.50856187 C72.2321962,8.54652378 72.2577661,8.60405938 72.2581573,8.66506595 L72.2581573,9.53503983 C72.2581996,9.62706763 72.2013888,9.70746181 72.1200569,9.73046875 C71.8581868,9.80605293 71.588123,9.84210952 71.3173483,9.83763945 C70.7424756,9.87604268 70.1794601,9.64716417 69.7665959,9.20722359 C69.3804291,8.71654968 69.1861184,8.07903423 69.2257027,7.43260295 L69.2257027,4.44758387 L68.2733853,4.44758387 C68.171691,4.44758387 68.0892514,4.3572649 68.0892514,4.2458508 L68.0892514,3.46728721 C68.0892514,3.35587311 68.171691,3.26555414 68.2733853,3.26555414 L69.2285797,3.26555414 L69.2285797,1.82820598 C69.2283241,1.74084408 69.2794244,1.66322944 69.3551718,1.63592915 L70.4542208,1.232463 C70.510423,1.21220628 70.5720865,1.22277127 70.6199604,1.26085968 C70.6678343,1.29894809 70.6960864,1.35991974 70.6958965,1.42473984 L70.6958965,3.26555414 L72.0855318,3.26555414 C72.1872261,3.26555414 72.2696656,3.35587311 72.2696656,3.46728721 L72.2696656,4.27421951 C72.2696656,4.38563361 72.1872261,4.47595258 72.0855318,4.47595258 L70.6958965,4.46019219 Z" id="_Compound_Path_11"></path>
                    <path d="M77.0571462,3.3475082 L77.0571462,4.38454228 C77.0558821,4.44729642 77.0280275,4.50583016 76.98179,4.54289612 C76.9355525,4.57996209 76.8762013,4.59133622 76.8212247,4.57366704 C76.6450248,4.52063844 76.4630573,4.49412785 76.2803314,4.49486506 C75.8515467,4.46075829 75.4307413,4.63479535 75.1294948,4.97082903 C74.8562049,5.3206896 74.7152096,5.77170099 74.7353332,6.23166074 L74.7353332,9.54134399 C74.7353332,9.65275809 74.6528937,9.74307707 74.5511993,9.74307707 L73.4636587,9.74307707 C73.3619644,9.74307707 73.2795248,9.65275809 73.2795248,9.54134399 L73.2795248,5.09060804 C73.2822231,4.55170179 73.2591748,4.01301012 73.2104746,3.47674345 C73.2047809,3.42007797 73.2212367,3.36341864 73.2557725,3.32077736 C73.2903083,3.27813609 73.3396994,3.25349426 73.3917314,3.25294582 L74.3958364,3.25294582 C74.4890584,3.25392947 74.5669008,3.33108981 74.5770932,3.43261434 L74.6749143,4.3971506 C74.8069956,3.99966388 75.0546682,3.66075982 75.3798017,3.43261434 C75.7061658,3.20813578 76.0849128,3.09208201 76.4702195,3.09849394 C76.6213947,3.09698832 76.772156,3.11604649 76.9190458,3.15523136 C76.9993501,3.17793651 77.0558897,3.25665633 77.0571462,3.3475082 Z" id="_Compound_Path_12"></path>
                    <path d="M83.4356584,3.46728721 L83.4356584,9.56025647 C83.4356584,9.67167057 83.3532189,9.76198954 83.2515245,9.76198954 L82.1754923,9.76198954 C82.0737979,9.76198954 81.9913584,9.67167057 81.9913584,9.56025647 L81.9913584,8.7186513 C81.8137599,9.07582829 81.5447538,9.36835432 81.2174207,9.56025647 C80.8645275,9.77086605 80.4684244,9.87935654 80.0665841,9.8754644 C79.5824792,9.88458993 79.1061579,9.7412734 78.6942113,9.46254201 C78.2884099,9.17943069 77.9665289,8.77312137 77.7677878,8.2931206 C77.5397974,7.73996222 77.4277276,7.13790312 77.4397994,6.53110828 C77.4242672,5.9107632 77.5363663,5.2945418 77.7677878,4.72811893 C77.9688115,4.23689933 78.2918231,3.81748069 78.6999655,3.51772048 C79.104246,3.22859303 79.5780885,3.07823146 80.0608299,3.08588562 C80.4626702,3.08199347 80.8587733,3.19048396 81.2116665,3.40109355 C81.5388992,3.59314463 81.8078706,3.88563294 81.9856042,4.24269872 L81.9856042,3.46728721 C81.9856042,3.35587311 82.0680437,3.26555414 82.1697381,3.26555414 L83.2457704,3.26555414 C83.2955949,3.26384746 83.3439221,3.28434558 83.3797086,3.32236443 C83.4154951,3.36038328 83.4356828,3.41267388 83.4356584,3.46728721 Z M81.5914426,8.05041049 C81.8816591,7.59586063 82.0226378,7.04694071 81.9913584,6.49328333 C82.0229463,5.93369102 81.882115,5.37868494 81.5914426,4.91724368 C81.3122606,4.53966913 80.8831925,4.33401015 80.440606,4.36562981 C79.9999561,4.3428316 79.576857,4.55695331 79.3070319,4.93930824 C79.0155458,5.4005861 78.8727922,5.9551878 78.9013619,6.51534788 C78.8685281,7.06620646 79.0119805,7.61237666 79.3070319,8.05986673 C79.5917375,8.42810062 80.0181776,8.62782798 80.4578685,8.59887229 C80.8958972,8.62232819 81.3172051,8.41209393 81.5885656,8.0346501 L81.5914426,8.05041049 Z" id="_Compound_Path_13"></path>
                    <path d="M85.0266901,9.54449607 L85.0266901,0.48226813 C85.0266901,0.37085403 85.1091296,0.280535056 85.210824,0.280535056 L86.3127501,0.280535056 C86.4144444,0.280535056 86.4968839,0.37085403 86.4968839,0.48226813 L86.4968839,9.54449607 C86.4968839,9.65591017 86.4144444,9.74622915 86.3127501,9.74622915 L85.2252094,9.74622915 C85.1739333,9.75063169 85.1233135,9.73133767 85.0856041,9.69301774 C85.0478946,9.6546978 85.0265329,9.60084505 85.0266901,9.54449607 Z" id="_Compound_Path_14"></path>
                </g>
                <path d="M34.3804063,9.27789643 L32.3559643,11.1773981 C31.9563605,11.5601652 31.4170076,11.7611659 30.8648142,11.7331051 C30.3126209,11.7050443 29.7963448,11.4503997 29.4374648,11.0290887 C28.6882834,10.1021415 27.7788053,9.31768975 26.7524453,8.71317971 C25.2887053,7.83736815 23.6169864,7.37145477 21.9120072,7.36413421 C19.1766851,7.36413421 16.8039213,8.40515241 14.7937158,10.4871888 C12.8270484,12.4297817 11.7299585,15.0875989 11.7527817,17.8541751 C11.6914307,20.7069314 12.7816633,23.4638323 14.7766319,25.5006677 C16.6530864,27.5316532 19.3004846,28.6715653 22.0629149,28.6379828 C23.6289551,28.6339678 25.1678994,28.2284565 26.5332019,27.4600636 C27.9625548,26.6785869 29.1119216,25.2107037 29.9813023,23.056414 L23.7172059,23.056414 C22.5984073,23.0501454 21.6943111,22.1407077 21.6927638,21.0200113 L21.6927638,18.2534698 C21.6927638,17.7126258 21.9072525,17.1939333 22.289045,16.8114989 C22.6708374,16.4290644 23.1886591,16.2142149 23.7285951,16.2142149 L35.8040646,16.2142149 C36.9273111,16.2157886 37.8370497,17.1283333 37.8370486,18.2534698 L37.8370486,20.7633219 C37.8370486,23.0944421 37.0379018,25.59859 35.4396081,28.2757655 C33.9757085,30.8271716 31.7736599,32.8738068 29.12426,34.1453969 C25.6334499,35.7996176 22.0932863,36.3472217 18.5037692,35.7882092 C14.757719,35.1804131 11.3263794,33.3231678 8.76594664,30.5175198 C5.58834137,27.0493605 4.00048784,22.792119 4.00238605,17.7457951 C3.92407214,13.0363717 5.77647382,8.5006642 9.12755584,5.19653468 C12.5481321,1.73217823 16.6653519,0 21.479215,0 C27.0125002,0 31.3935713,2.18661357 34.6224282,6.5598407 C35.2386614,7.39705301 35.1348302,8.56314137 34.3804063,9.27789643 Z M41.7663455,17.988224 C41.7663455,12.8107034 43.4747354,8.53254642 46.8915153,5.15375311 C50.3082951,1.7749598 54.363823,0.0922180504 59.0580989,0.105527872 C64.2440114,0.105527872 68.5330193,1.80062874 71.9251224,5.19083047 C75.3172255,8.5810322 77.0132771,12.8639427 77.0132771,18.0395619 C77.0132771,23.1733503 75.3352585,27.442951 71.9792214,30.8483639 C68.6231843,34.2537769 64.3958683,35.9498284 59.2972735,35.9365186 C54.2005769,35.9365186 50.0045814,34.2461713 46.709287,30.8654765 C43.4139927,27.4847818 41.7663455,23.1923643 41.7663455,17.988224 Z M59.4026242,7.09888848 C56.4717864,7.04564919 54.1094627,8.06004775 52.3156533,10.1420841 C50.5218439,12.2241205 49.6249392,14.9098524 49.6249392,18.1992798 C49.6249392,21.3137781 50.5398769,23.8939821 52.3697523,25.9398918 C54.1072335,27.9454821 56.647004,29.0705904 59.2972735,29.0087564 C62.2281113,29.0087564 64.5951805,27.9991114 66.398481,25.9798213 C68.2017814,23.9605312 69.1024826,21.2985668 69.1005844,17.9939283 C69.1005844,14.7387261 68.2169671,12.1233462 66.4497327,10.1477884 C64.6824982,8.17223053 62.333462,7.15593057 59.4026242,7.09888848 Z M85,35.5971182 L85,29.4650932 C85,29.3576808 84.9574022,29.2546677 84.8815777,29.1787157 C84.8057532,29.1027637 84.7029131,29.0600943 84.595681,29.0600943 L78.4767978,29.0600943 C78.2534986,29.0600943 78.0724788,29.2414185 78.0724788,29.4650932 L78.0724788,35.5942661 C78.0724788,35.8179408 78.2534986,35.9992649 78.4767978,35.9992649 L84.595681,35.9992649 C84.817873,35.9992704 84.9984353,35.8196782 85,35.5971182 Z" id="_Compound_Path_15"></path>
            </g>
        </g>
    </g>
</svg>