<svg xmlns="http://www.w3.org/2000/svg" width="18" height="18"><path fill="#49B975" fill-rule="evenodd" d="M9.051 9.07c.134-1.168.534-2.098 1.2-2.793-.228-1.452.137-2.583 1.095-3.394 1.188-1.004 3.122-1.296 5.8-.876-.46 3.067-1.34 4.89-2.64 5.468-.963.428-1.94.521-2.934.28C11.19 8.303 11 9.051 11 10v5.999H9v-3.32c-.077-1.114-.535-1.871-1.375-2.272-.878.654-1.897.87-3.055.65-1.302-.25-2.502-1.577-3.6-3.983 2.093-1.092 3.818-1.361 5.175-.808.952.389 1.532 1.14 1.74 2.255.434.143.822.326 1.166.548z"/></svg>