<?xml version="1.0" encoding="UTF-8"?>
<svg width="250px" height="165px" viewBox="0 0 250 165" version="1.1" xmlns="http://www.w3.org/2000/svg" xmlns:xlink="http://www.w3.org/1999/xlink">
    <title>Logo grön</title>
    <g id="Overview" stroke="none" stroke-width="1" fill="none" fill-rule="evenodd">
        <g id="Logo" transform="translate(-147.000000, -190.000000)" fill="#1C4637" fill-rule="nonzero">
            <g id="Logo/Primary" transform="translate(147.000000, 190.000000)">
                <path d="M17.7430556,164.522817 C22.7986111,164.522817 27.4652778,162.335317 30.7222222,158.93254 L25.5208333,154.265873 C23.5763889,156.501984 20.8055556,158.008929 17.7430556,158.008929 C12.1527778,158.008929 7.38888889,153.050595 7.38888889,147.217262 C7.38888889,141.43254 12.1527778,136.474206 17.7430556,136.474206 C20.8055556,136.474206 23.5763889,137.981151 25.5208333,140.217262 L30.7222222,135.550595 C27.4652778,132.099206 22.7986111,129.960317 17.7430556,129.960317 C8.16666667,129.960317 1.42108547e-14,137.835317 1.42108547e-14,147.217262 C1.42108547e-14,156.599206 8.16666667,164.522817 17.7430556,164.522817 Z M65.449653,163.939484 L65.449653,157.474206 L48.824653,157.474206 L48.824653,130.543651 L41.6302086,130.543651 L41.6302086,163.939484 L65.449653,163.939484 Z M84.086806,163.939484 L84.086806,130.543651 L76.8923616,130.543651 L76.8923616,163.939484 L84.086806,163.939484 Z M104.911459,163.939484 L104.911459,143.133929 L115.265626,161.99504 L125.571181,143.133929 L125.571181,163.939484 L132.765626,163.939484 L132.765626,130.543651 L125.571181,130.543651 L115.265626,149.404762 L104.911459,130.543651 L97.7656257,130.543651 L97.7656257,163.939484 L104.911459,163.939484 Z M151.694445,163.939484 L153.833334,158.689484 L168.708334,158.689484 L170.847223,163.939484 L178.916668,163.939484 L165.305557,130.543651 L157.284723,130.543651 L143.673612,163.939484 L151.694445,163.939484 Z M166.229168,152.613095 L156.312501,152.613095 L161.270834,140.411706 L166.229168,152.613095 Z M202.220487,163.939484 L202.220487,137.008929 L212.623265,137.008929 L212.623265,130.543651 L184.623265,130.543651 L184.623265,137.008929 L195.026043,137.008929 L195.026043,163.939484 L202.220487,163.939484 Z M249.878474,163.939484 L249.878474,157.474206 L231.35764,157.474206 L231.35764,150.133929 L248.128474,150.133929 L248.128474,143.668651 L231.35764,143.668651 L231.35764,137.008929 L249.878474,137.008929 L249.878474,130.543651 L224.163196,130.543651 L224.163196,163.939484 L249.878474,163.939484 Z" id="CLIMATE"></path>
                <path d="M70.2688492,103.6875 C85.6954068,103.6875 98.2832942,99.0236765 108.032511,89.6960296 C110.086392,87.7309679 111.248016,85.0119161 111.248016,82.1694007 L111.248016,51.4236111 C111.248016,47.5883003 108.138882,44.4791667 104.303571,44.4791667 L69.0744048,44.4791667 C67.1567494,44.4791667 65.6021825,46.0337335 65.6021825,47.9513889 L65.6021825,59.8194444 C65.6021825,61.7370998 67.1567494,63.2916667 69.0744048,63.2916667 L87.0396825,63.2916667 L87.0396825,63.2916667 L87.0396825,75.8333333 C82.0813492,79.1875 76.1021825,81.0833333 70.2688492,81.0833333 C54.6646825,81.0833333 41.3938492,67.6666667 41.3938492,51.7708333 C41.3938492,36.0208333 54.6646825,22.6041667 70.2688492,22.6041667 C77.5079782,22.6041667 84.3470397,25.490217 90.7860339,31.2623178 C92.1003444,32.4404931 94.0894266,32.4451606 95.4092467,31.2731604 L108.339942,19.7907027 C109.773844,18.5173922 109.904033,16.3227637 108.630726,14.8888594 C108.523439,14.7680397 108.407848,14.6548563 108.284797,14.5501345 C96.886979,4.85004483 84.2149963,0 70.2688492,0 C40.6646825,0 15.8730159,23.625 15.8730159,51.7708333 C15.8730159,79.9166667 40.6646825,103.6875 70.2688492,103.6875 Z M179.977183,103.6875 C209.289683,103.6875 233.935516,79.9166667 233.935516,51.7708333 C233.935516,23.625 209.289683,0 179.977183,0 C150.810516,0 126.164683,23.625 126.164683,51.7708333 C126.164683,79.9166667 150.810516,103.6875 179.977183,103.6875 Z M179.977183,81.0833333 C164.664683,81.0833333 151.685516,67.6666667 151.685516,51.7708333 C151.685516,36.0208333 164.664683,22.6041667 179.977183,22.6041667 C195.289683,22.6041667 208.268849,36.0208333 208.268849,51.7708333 C208.268849,67.6666667 195.289683,81.0833333 179.977183,81.0833333 Z" id="GO"></path>
            </g>
        </g>
    </g>
</svg>